<svg width="40" height="40" viewBox="0 0 40 40"  xmlns="http://www.w3.org/2000/svg">
<path d="M23.4832 16.153C23.3606 17.1469 22.6253 17.8963 21.8409 17.8269C21.0564 17.7575 20.5199 16.8956 20.6424 15.9017C20.765 14.9079 21.4758 14.3573 22.2603 14.4267C23.0448 14.4961 23.6057 15.1592 23.4832 16.153ZM24.7516 17.8369C24.0013 17.7714 23.3214 18.2913 23.2042 19.23C23.0869 20.1687 23.6002 20.9827 24.3505 21.0483C25.1008 21.1138 25.8042 20.406 25.9214 19.4674C26.0386 18.5288 25.502 17.9025 24.7516 17.8369ZM14.0786 19.4674C14.1959 20.406 14.8992 21.1138 15.6495 21.0482C16.3998 20.9827 16.9131 20.1686 16.7958 19.2299C16.6786 18.2913 15.9987 17.7713 15.2484 17.8369C14.498 17.9025 13.9614 18.5287 14.0786 19.4674ZM16.5168 16.153C16.6394 17.1469 17.3747 17.8963 18.1591 17.8269C18.9436 17.7575 19.4801 16.8956 19.3576 15.9017C19.235 14.9079 18.5242 14.3573 17.7397 14.4267C16.9552 14.4961 16.3942 15.1592 16.5168 16.153ZM16.25 23.8946C16.25 25.3347 17.7974 25.7262 19.9375 25.7262C22.0776 25.7262 23.625 25.3347 23.625 23.8946C23.625 23.0254 21.8125 19.1577 19.9375 19.1577C18.0625 19.1577 16.25 23.0254 16.25 23.8946ZM20.9737 33.5288C21.9729 32.2744 23.3943 31.0327 25.2211 29.5542C25.7599 29.1181 25.8469 28.3232 25.4153 27.7786C24.9838 27.2341 24.1971 27.1462 23.6583 27.5823C22.2131 28.752 20.9968 29.7934 19.9997 30.8359C18.6469 29.4218 16.9457 28.0615 15.1661 26.6386C10.9056 23.2319 6.5 19.7093 6.5 15.1753C6.5 11.2605 9.01869 8.52634 12.625 8.52634C16.9757 8.52634 18.7902 11.7842 18.8925 11.975C19.1082 12.4042 19.5387 12.6726 20.0159 12.667C20.4923 12.6608 20.9164 12.3824 21.1211 11.948C21.2198 11.7539 22.9304 8.52634 27.3751 8.52634C30.9814 8.52634 33.5001 11.2605 33.5001 15.1753C33.5001 18.728 30.7174 21.6362 27.9954 24.0124C27.473 24.4684 27.4154 25.2661 27.8666 25.794C28.318 26.3219 29.1074 26.3801 29.6297 25.9241C31.6189 24.1875 33.0136 22.6816 34.0184 21.185C35.3518 19.1992 36 17.2334 36 15.1753C36 12.4925 35.1284 10.1825 33.4794 8.49495C31.9072 6.88605 29.7393 6 27.375 6C23.5512 6 21.2153 7.83097 19.9835 9.2406C18.7304 7.83659 16.3743 6 12.625 6C10.2607 6 8.09281 6.88605 6.52063 8.49495C4.87163 10.1825 4 12.4925 4 15.1753C4 20.9319 9.10806 25.0162 13.6149 28.6198C15.7411 30.3198 17.7493 31.9256 19.0262 33.5288C19.2635 33.8268 19.6216 34 20 34C20.3784 34 20.7365 33.8267 20.9737 33.5288Z" fill="inherit"/>
</svg>
