<svg width="16" height="17" viewBox="0 0 16 17" fill="none" xmlns="http://www.w3.org/2000/svg">
<path d="M3.85207 9.13996L10.6269 9.13996L8.81554 10.9513C8.56564 11.2012 8.56564 11.6065 8.81554 11.8564C9.06543 12.1063 9.47075 12.1063 9.72065 11.8564L12.6245 8.95254C12.6543 8.9228 12.6808 8.88983 12.7044 8.85478C12.7139 8.84056 12.7203 8.82488 12.7287 8.81014C12.7407 8.78853 12.7536 8.76759 12.7633 8.74451C12.7709 8.72582 12.7751 8.70644 12.781 8.68722C12.7874 8.6666 12.7952 8.64644 12.7996 8.62483C12.806 8.59217 12.8082 8.55905 12.8095 8.52597C12.8098 8.51717 12.812 8.50899 12.812 8.50003C12.812 8.49014 12.8095 8.48082 12.8091 8.47108C12.8077 8.4391 12.8058 8.40707 12.7994 8.3754C12.7949 8.35254 12.7868 8.33139 12.7799 8.30946C12.7743 8.29154 12.7705 8.27332 12.7633 8.25587C12.753 8.23108 12.7393 8.208 12.726 8.18498C12.7186 8.17201 12.713 8.15826 12.7047 8.14561C12.681 8.10993 12.6539 8.07681 12.6237 8.04675L9.72066 5.14369C9.59572 5.01874 9.43186 4.95619 9.26801 4.95619C9.10416 4.95619 8.94052 5.01875 8.81536 5.14369C8.56546 5.39358 8.56546 5.7989 8.81536 6.04863L10.6267 7.85983L3.85216 7.85983C3.49872 7.85983 3.21216 8.14639 3.21216 8.49983C3.21216 8.85327 3.49872 9.13983 3.85216 9.13983L3.85207 9.13996Z" fill="#2F6F2D"/>
</svg>
