<svg width="16" height="16" viewBox="0 0 16 16" fill="none" xmlns="http://www.w3.org/2000/svg">
<path d="M3.82815 8.63996L10.6029 8.63996L8.79161 10.4513C8.54172 10.7012 8.54172 11.1065 8.79161 11.3564C9.04151 11.6063 9.44683 11.6063 9.69672 11.3564L12.6006 8.45254C12.6303 8.4228 12.6569 8.38983 12.6804 8.35478C12.69 8.34056 12.6964 8.32488 12.7048 8.31014C12.7167 8.28853 12.7297 8.26759 12.7393 8.24451C12.747 8.22582 12.7512 8.20644 12.7571 8.18722C12.7635 8.1666 12.7713 8.14644 12.7756 8.12483C12.782 8.09217 12.7843 8.05905 12.7855 8.02597C12.7858 8.01717 12.7881 8.00899 12.7881 8.00003C12.7881 7.99014 12.7855 7.98082 12.7852 7.97108C12.7838 7.9391 12.7818 7.90707 12.7755 7.8754C12.771 7.85254 12.7628 7.83139 12.756 7.80946C12.7503 7.79154 12.7465 7.77332 12.7393 7.75587C12.7291 7.73108 12.7153 7.708 12.702 7.68498C12.6947 7.67201 12.6891 7.65826 12.6807 7.64561C12.657 7.60993 12.63 7.57681 12.5998 7.54675L9.69674 4.64369C9.57179 4.51874 9.40794 4.45619 9.24409 4.45619C9.08023 4.45619 8.91659 4.51875 8.79143 4.64369C8.54154 4.89358 8.54154 5.2989 8.79143 5.54863L10.6028 7.35983L3.82823 7.35983C3.47479 7.35983 3.18823 7.64639 3.18823 7.99983C3.18823 8.35327 3.47479 8.63983 3.82823 8.63983L3.82815 8.63996Z" fill="#2F6F2D"/>
</svg>
