<svg width="20" height="20" viewBox="0 0 20 20" fill="none" xmlns="http://www.w3.org/2000/svg">
<path d="M15.1848 9.20002H6.71629L8.98046 6.93585C9.29282 6.62348 9.29282 6.11683 8.98046 5.80447C8.66809 5.4921 8.16144 5.4921 7.84907 5.80447L4.21924 9.4343C4.18206 9.47147 4.14886 9.51268 4.11943 9.5565C4.10745 9.57427 4.09945 9.59387 4.08903 9.61229C4.07406 9.63931 4.05785 9.66548 4.0458 9.69433C4.03623 9.7177 4.03102 9.74192 4.0236 9.76594C4.01559 9.79172 4.00583 9.81692 4.00042 9.84393C3.99242 9.88475 3.98962 9.92616 3.98805 9.9675C3.98766 9.97851 3.98486 9.98873 3.98486 9.99993C3.98486 10.0123 3.98805 10.0239 3.98844 10.0361C3.99027 10.0761 3.99268 10.1161 4.00062 10.1557C4.00622 10.1843 4.01644 10.2107 4.02503 10.2381C4.03206 10.2605 4.03682 10.2833 4.0458 10.3051C4.05863 10.3361 4.07581 10.365 4.09242 10.3937C4.10159 10.41 4.10863 10.4271 4.11904 10.443C4.14867 10.4876 4.18246 10.529 4.22022 10.5665L7.84905 14.1954C8.00523 14.3515 8.21005 14.4297 8.41487 14.4297C8.61968 14.4297 8.82423 14.3515 8.98068 14.1954C9.29305 13.883 9.29305 13.3763 8.98068 13.0642L6.71652 10.8002H15.1847C15.6265 10.8002 15.9847 10.442 15.9847 10.0002C15.9847 9.55838 15.6265 9.20018 15.1847 9.20018L15.1848 9.20002Z" />
</svg>
