<svg width="40" height="40" viewBox="0 0 40 40" fill="none" xmlns="http://www.w3.org/2000/svg">
<path d="M34.512 15.5458C34.6252 15.3862 34.6865 15.1956 34.6875 15C34.6875 6.92367 28.1348 0.349531 20.0667 0.313359C20.0444 0.312786 20.0221 0.3125 20 0.3125C19.978 0.3125 19.9556 0.3125 19.9333 0.313359C11.8652 0.349531 5.3125 6.92367 5.3125 15C5.31346 15.1739 5.36235 15.3442 5.45378 15.4921C5.54522 15.64 5.67566 15.7599 5.83078 15.8385L16.0815 20.9635C12.5105 22.4741 10.0442 26.1549 10.0781 30.0781C10.3855 41.467 25.77 43.7394 29.4476 33.1098C31.0591 28.3469 28.4956 22.8477 23.9185 20.9635L34.1692 15.8385C34.3052 15.7697 34.4227 15.6693 34.512 15.5458ZM20 2.1875C21.5688 2.1875 23.7102 6.35656 24.0234 13.262C22.6937 12.549 21.347 12.1875 20.0026 12.1875H20.0016C18.6565 12.1875 17.3084 12.5494 15.9766 13.2632C16.2896 6.35703 18.4311 2.1875 20 2.1875ZM20 20.1562C19.9698 20.1562 19.9398 20.1571 19.9097 20.1574L16.3247 15.2277C18.792 13.6867 21.2109 13.6866 23.6756 15.2273L20.0903 20.1576C20.0602 20.1571 20.0302 20.1562 20 20.1562ZM14.353 15.7043L16.9797 19.3163L8.48719 15.0703C10.6094 14.3916 12.5094 14.6033 14.353 15.7043ZM25.663 15.6822C27.3027 14.5703 29.1406 14.3756 31.4531 15.1003L23.0203 19.3163L25.663 15.6822ZM32.7318 13.5572C30.1127 12.5899 27.8891 12.541 25.9049 13.4104C25.7754 10.2289 25.2586 7.27242 24.4166 4.95727C24.1316 4.14421 23.7643 3.36244 23.3203 2.62414C28.3305 3.96953 32.1382 8.28391 32.7318 13.5572ZM16.6797 2.6243C16.2357 3.36241 15.8683 4.14401 15.5834 4.95687C14.7359 7.28742 14.2178 10.2673 14.0925 13.4725C13.0636 13.0314 11.956 12.8034 10.8365 12.8023C9.68805 12.8023 8.50289 13.0383 7.27398 13.5102C7.88469 8.25851 11.6845 3.96586 16.6797 2.6243ZM11.9531 30.0781C11.9531 29.8393 11.9642 29.603 11.9844 29.3694L12.8955 30.7362C12.9629 30.8372 13.0493 30.9242 13.1498 30.9923L16.1733 33.0402L15.928 35.0024C15.9029 35.2037 15.9437 35.4078 16.0443 35.5839L17.1845 37.5781L17.184 37.616C15.649 37.0406 14.326 36.0108 13.3914 34.664C12.4568 33.3172 11.9551 31.7174 11.9531 30.0781ZM19.0535 38.0691C19.0412 37.7487 19.1316 37.1498 18.939 36.8694L17.8281 34.9249L18.1059 32.7025C18.1274 32.5309 18.101 32.3567 18.0296 32.1992C17.9582 32.0417 17.8446 31.907 17.7014 31.81L14.3539 29.543L13.2059 27.8211C13.1322 27.7104 13.0356 27.6167 12.9228 27.5462L12.4633 27.2589C13.0852 25.5984 14.2378 24.1897 15.7422 23.2513C17.2467 22.313 19.0188 21.8975 20.7836 22.0695L20.6968 24.7708L18.3485 25.0056C18.1685 25.0237 17.9976 25.0934 17.8563 25.2065L16.5303 26.2673H15.5928C15.4058 26.2673 15.2231 26.3232 15.0681 26.4279C14.9132 26.5326 14.793 26.6812 14.7232 26.8547C14.6534 27.0282 14.637 27.2186 14.6763 27.4014C14.7155 27.5843 14.8085 27.7512 14.9434 27.8808L16.7767 29.6422C16.9058 29.7662 17.0676 29.8506 17.2431 29.8855L19.4673 30.3286L21.7252 31.0812L22.0767 33.1945L20.9623 35.4219C20.8973 35.5521 20.8634 35.6956 20.8634 35.8412V38.0786C20.2617 38.1432 19.6546 38.14 19.0535 38.0691ZM22.7384 37.6449V36.0625L23.8895 33.7604C23.9778 33.5832 24.0079 33.3826 23.9754 33.1873L23.4812 30.2165C23.4533 30.0483 23.38 29.891 23.2693 29.7614C23.1586 29.6318 23.0146 29.5348 22.8529 29.4809L20.0043 28.5312C19.9672 28.5189 19.9293 28.5088 19.8909 28.5012L17.8778 28.1002L17.588 27.8219L18.8107 26.8437L21.7005 26.5547C21.9266 26.5321 22.1369 26.4281 22.2921 26.262C22.4473 26.096 22.5369 25.8792 22.5442 25.652L22.6463 22.4787C23.7702 22.8722 24.793 23.5099 25.6412 24.3459L24.7123 26.2031C24.6191 26.3896 24.5907 26.6018 24.6316 26.8062L25.2566 29.9312C25.2981 30.1388 25.4087 30.3262 25.5702 30.463L26.8449 31.542L27.5306 32.9134C27.1186 34 26.4773 34.9851 25.6503 35.8016C24.8234 36.6181 23.8302 37.2468 22.7384 37.6449ZM28.0469 30.1026L27.0312 29.2432L26.5334 26.7541L26.9214 25.9781C27.6596 27.2182 28.0485 28.6349 28.0469 30.0781V30.1026Z" />
</svg>
