<svg width="16" height="17" viewBox="0 0 16 17" fill="none" xmlns="http://www.w3.org/2000/svg">
<path d="M13.1201 3.70004H11.5201V3.06004C11.5201 2.7066 11.2335 2.42004 10.8801 2.42004C10.5267 2.42004 10.2401 2.7066 10.2401 3.06004V3.70004H8.6401V3.06004C8.6401 2.7066 8.35354 2.42004 8.0001 2.42004C7.64666 2.42004 7.3601 2.7066 7.3601 3.06004V3.70004H5.7601V3.06004C5.7601 2.7066 5.47354 2.42004 5.1201 2.42004C4.76666 2.42004 4.4801 2.7066 4.4801 3.06004V3.70004H2.8801C2.17322 3.70004 1.6001 4.27316 1.6001 4.98004V12.98C1.6001 13.6869 2.17322 14.26 2.8801 14.26H13.1201C13.827 14.26 14.4001 13.6869 14.4001 12.98V4.98004C14.4001 4.27316 13.827 3.70004 13.1201 3.70004ZM13.1201 12.98H2.8801V4.98004H4.4801V5.30004C4.4801 5.65348 4.76666 5.94004 5.1201 5.94004C5.47354 5.94004 5.7601 5.65348 5.7601 5.30004V4.98004H7.3601V5.30004C7.3601 5.65348 7.64666 5.94004 8.0001 5.94004C8.35354 5.94004 8.6401 5.65348 8.6401 5.30004V4.98004H10.2401V5.30004C10.2401 5.65348 10.5267 5.94004 10.8801 5.94004C11.2335 5.94004 11.5201 5.65348 11.5201 5.30004V4.98004H13.1201V12.98Z" />
<path d="M11.5203 10.74H4.48033C4.12689 10.74 3.84033 11.0266 3.84033 11.38C3.84033 11.7334 4.12689 12.02 4.48033 12.02H11.5203C11.8738 12.02 12.1603 11.7334 12.1603 11.38C12.1603 11.0266 11.8738 10.74 11.5203 10.74Z" />
<path d="M11.5203 8.82007H4.48033C4.12689 8.82007 3.84033 9.10663 3.84033 9.46007C3.84033 9.81351 4.12689 10.1001 4.48033 10.1001H11.5203C11.8738 10.1001 12.1603 9.81351 12.1603 9.46007C12.1603 9.10663 11.8738 8.82007 11.5203 8.82007Z" />
<path d="M11.5203 6.90002H4.48033C4.12689 6.90002 3.84033 7.18658 3.84033 7.54002C3.84033 7.89346 4.12689 8.18002 4.48033 8.18002H11.5203C11.8738 8.18002 12.1603 7.89346 12.1603 7.54002C12.1603 7.18658 11.8738 6.90002 11.5203 6.90002Z" />
</svg>
