<svg width="64" height="64" viewBox="0 0 64 64" fill="none" xmlns="http://www.w3.org/2000/svg">
<path d="M32 6C26.8577 6 21.8309 7.52487 17.5552 10.3818C13.2795 13.2387 9.94702 17.2993 7.97914 22.0502C6.01127 26.8011 5.49638 32.0288 6.49959 37.0723C7.50281 42.1158 9.97907 46.7486 13.6152 50.3848C17.2514 54.0209 21.8842 56.4972 26.9277 57.5004C31.9712 58.5036 37.1989 57.9887 41.9498 56.0209C46.7007 54.053 50.7613 50.7205 53.6182 46.4448C56.4751 42.1691 58 37.1423 58 32C57.9919 25.1069 55.25 18.4984 50.3758 13.6242C45.5016 8.75002 38.8931 6.00813 32 6ZM32 53.2727C27.7927 53.2727 23.6798 52.0251 20.1815 49.6876C16.6832 47.3501 13.9567 44.0278 12.3466 40.1407C10.7365 36.2536 10.3152 31.9764 11.136 27.8499C11.9568 23.7234 13.9829 19.933 16.9579 16.9579C19.933 13.9829 23.7234 11.9568 27.8499 11.136C31.9764 10.3152 36.2536 10.7365 40.1407 12.3466C44.0278 13.9566 47.3502 16.6832 49.6876 20.1815C52.0251 23.6798 53.2727 27.7926 53.2727 32C53.2658 37.6398 51.0224 43.0466 47.0345 47.0345C43.0466 51.0224 37.6398 53.2658 32 53.2727Z" />
<path d="M34.0099 31.1867V20.0022C34.0099 19.4712 33.7986 18.9619 33.4226 18.5864C33.0466 18.2109 32.5367 18 32.0049 18C31.4732 18 30.9632 18.2109 30.5872 18.5864C30.2112 18.9619 30 19.4712 30 20.0022V32.0157C30.0001 32.5466 30.2114 33.0558 30.5874 33.4312L36.6022 39.4379C36.9804 39.8027 37.4868 40.0045 38.0125 39.9999C38.5382 39.9954 39.041 39.7848 39.4128 39.4136C39.7845 39.0423 39.9954 38.5401 39.9999 38.0152C40.0045 37.4902 39.8024 36.9844 39.4372 36.6068L34.0099 31.1867Z" />
</svg>
