<svg width="16" height="16" viewBox="0 0 16 16" fill="none" xmlns="http://www.w3.org/2000/svg">
<path d="M8.90521 8.00013L11.2811 5.62427C11.531 5.37437 11.531 4.96905 11.2811 4.71916C11.0312 4.46926 10.626 4.46926 10.3761 4.71916L8.00013 7.09503L5.62426 4.71916C5.37437 4.46926 4.96905 4.46926 4.71916 4.71916C4.46926 4.96905 4.46926 5.37437 4.71916 5.62427L7.09503 8.00013L4.71916 10.3761C4.46926 10.626 4.46926 11.0313 4.71916 11.2811C4.84411 11.406 5.00796 11.4686 5.17181 11.4686C5.33566 11.4686 5.49931 11.406 5.62447 11.2811L8.00006 8.90521L10.3761 11.2811C10.501 11.406 10.6649 11.4686 10.8286 11.4686C10.9923 11.4686 11.1561 11.406 11.2811 11.2811C11.531 11.0312 11.531 10.6259 11.2811 10.3761L8.90521 8.00013Z" />
</svg>
