<svg width="24" height="24" viewBox="0 0 24 24"  xmlns="http://www.w3.org/2000/svg">
<path d="M21.8684 16.6364C21.8311 16.6055 17.6201 13.5919 16.4775 13.7895C15.9284 13.8865 15.6141 14.2605 14.9848 15.0108C14.8835 15.1317 14.6395 15.4207 14.4511 15.6267C14.0534 15.4971 13.6654 15.3392 13.2902 15.1542C11.3535 14.2113 9.78867 12.6465 8.84578 10.7098C8.66076 10.3346 8.50286 9.94664 8.37328 9.54891C8.58 9.35977 8.86969 9.11578 8.99344 9.01172C9.73945 8.38594 10.1135 8.07164 10.2105 7.5218C10.4095 6.38344 7.39453 2.16891 7.36359 2.13094C7.22629 1.93621 7.04746 1.7744 6.84003 1.65718C6.63259 1.53997 6.40171 1.47027 6.16406 1.45312C4.94203 1.45313 1.45312 5.97844 1.45312 6.74133C1.45312 6.78562 1.51711 11.2884 7.06969 16.9366C12.7116 22.4829 17.2144 22.5469 17.2587 22.5469C18.0216 22.5469 22.5469 19.058 22.5469 17.8359C22.5297 17.5982 22.46 17.3673 22.3426 17.1598C22.2253 16.9523 22.0633 16.7736 21.8684 16.6364ZM17.1813 21.1364C16.5668 21.0858 12.7882 20.5873 8.06391 15.9459C3.39867 11.1963 2.91281 7.40719 2.8643 6.82008C3.78594 5.3735 4.89899 4.05822 6.1732 2.91C6.20133 2.93813 6.23859 2.98031 6.28641 3.03516C7.26363 4.36915 8.10544 5.79722 8.79938 7.2982C8.57371 7.52522 8.3352 7.73909 8.085 7.93875C7.69701 8.23438 7.34073 8.56945 7.02187 8.93859L6.85102 9.17766L6.90164 9.46664C7.05044 10.1112 7.27834 10.7349 7.58016 11.3236C8.66148 13.5441 10.4558 15.3381 12.6764 16.4191C13.265 16.7214 13.8887 16.9495 14.5334 17.0984L14.8223 17.149L15.0614 16.9781C15.4319 16.6579 15.7684 16.3002 16.0655 15.9108C16.2855 15.6478 16.5802 15.297 16.6913 15.1978C18.1965 15.8911 19.6282 16.7339 20.9648 17.7136C21.0232 17.7628 21.064 17.8008 21.0914 17.8254C19.9434 19.1 18.6281 20.2133 17.1813 21.135V21.1364Z" />
</svg>
