<svg width="24" height="24" viewBox="0 0 24 24"  xmlns="http://www.w3.org/2000/svg">
<mask id="mask0_891_570" style="mask-type:luminance" maskUnits="userSpaceOnUse" x="0" y="0" width="24" height="24">
<path d="M0 1.43051e-06H24V24H0V1.43051e-06Z" fill="white"/>
</mask>
<g mask="url(#mask0_891_570)">
<path fill-rule="evenodd" clip-rule="evenodd" d="M12 24C12.2351 24 12.4546 23.8825 12.585 23.6869C13.1198 22.8847 13.7306 22.0293 14.3771 21.124C14.5713 20.852 14.7687 20.5755 14.9682 20.2947C15.8268 19.086 16.717 17.8062 17.5208 16.4992C19.1133 13.9099 20.4375 11.1064 20.4375 8.4375C20.4375 3.78444 16.6531 1.43051e-06 12 1.43051e-06C7.34694 1.43051e-06 3.5625 3.78444 3.5625 8.4375C3.5625 11.1064 4.88667 13.9099 6.47921 16.4992C7.28303 17.8062 8.17318 19.086 9.03177 20.2947C9.23131 20.5755 9.42873 20.852 9.62294 21.124C10.2694 22.0293 10.8802 22.8847 11.415 23.6869C11.5454 23.8825 11.7649 24 12 24ZM7.67704 15.7625C6.10552 13.2073 4.96875 10.6905 4.96875 8.4375C4.96875 4.56109 8.12359 1.40625 12 1.40625C15.8764 1.40625 19.0312 4.56109 19.0312 8.4375C19.0312 10.6905 17.8945 13.2073 16.323 15.7625C15.5448 17.0278 14.6771 18.2763 13.8218 19.4803C13.6277 19.7534 13.4339 20.0249 13.2418 20.2939C12.8133 20.894 12.3936 21.4818 12 22.0486C11.6064 21.4818 11.1867 20.894 10.7582 20.2939C10.5661 20.0249 10.3723 19.7534 10.1782 19.4803C9.32292 18.2763 8.45525 17.0278 7.67704 15.7625Z" fill="#1C431B"/>
<path fill-rule="evenodd" clip-rule="evenodd" d="M7.78125 8.4375C7.78125 10.7642 9.67325 12.6562 12 12.6562C14.3267 12.6562 16.2188 10.7642 16.2188 8.4375C16.2188 6.11075 14.3267 4.21875 12 4.21875C9.67325 4.21875 7.78125 6.11075 7.78125 8.4375ZM12 11.25C10.4499 11.25 9.1875 9.9876 9.1875 8.4375C9.1875 6.8874 10.4499 5.625 12 5.625C13.5501 5.625 14.8125 6.8874 14.8125 8.4375C14.8125 9.9876 13.5501 11.25 12 11.25Z" fill="#1C431B"/>
</g>
</svg>
