<svg width="24" height="24" viewBox="0 0 24 24"  xmlns="http://www.w3.org/2000/svg">
<g clip-path="url(#clip0_54_159)">
<path d="M21.2725 4.08984H2.72754C1.63493 4.08984 0.75 4.98026 0.75 6.06738V17.9326C0.75 19.0262 1.64143 19.9102 2.72754 19.9102H21.2725C22.3559 19.9102 23.25 19.0299 23.25 17.9326V6.06738C23.25 4.9822 22.3686 4.08984 21.2725 4.08984ZM20.9955 5.4082C20.5915 5.81008 13.6384 12.7265 13.3983 12.9653C13.0248 13.3389 12.5282 13.5445 12 13.5445C11.4718 13.5445 10.9752 13.3388 10.6004 12.9641C10.439 12.8035 3.56263 5.96341 3.00448 5.4082H20.9955ZM2.06836 17.6643V6.33655L7.76534 12.0035L2.06836 17.6643ZM3.00532 18.5918L8.70006 12.9333L9.66945 13.8976C10.292 14.5201 11.1196 14.8629 12 14.8629C12.8804 14.8629 13.708 14.5201 14.3293 13.8988L15.2999 12.9333L20.9947 18.5918H3.00532ZM21.9316 17.6643L16.2347 12.0035L21.9316 6.33655V17.6643Z" />
</g>
<defs>
<clipPath id="clip0_54_159">
<rect width="22.5" height="22.5"  transform="translate(0.75 0.75)"/>
</clipPath>
</defs>
</svg>
