<svg width="40" height="40" viewBox="0 0 40 40"  xmlns="http://www.w3.org/2000/svg">
<path fill-rule="evenodd" clip-rule="evenodd" d="M8.37891 25.3789C8.37891 18.9608 13.5818 13.7578 20 13.7578C26.4182 13.7578 31.6211 18.9608 31.6211 25.3789C31.6211 31.7971 26.4182 37 20 37C13.5818 37 8.37891 31.7971 8.37891 25.3789ZM20 15.75C14.6821 15.75 10.3711 20.061 10.3711 25.3789C10.3711 30.6968 14.6821 35.0078 20 35.0078C25.3179 35.0078 29.6289 30.6968 29.6289 25.3789C29.6289 20.061 25.3179 15.75 20 15.75Z" />
<path fill-rule="evenodd" clip-rule="evenodd" d="M26.6484 16.6392L27.6024 18.3881L25.6528 19.4515C25.6528 19.4515 25.6528 19.4515 25.6528 19.4515C24.726 19.957 24.4501 21.1592 25.0637 22.0183C26.014 23.3488 25.7284 25.1947 24.4203 26.1757C24.1757 26.3592 24.0317 26.6471 24.0317 26.9529C24.0317 27.4894 24.4667 27.9243 25.0032 27.9243H30.0074V29.9165H25.0032C23.3665 29.9165 22.0396 28.5897 22.0396 26.9529C22.0396 26.02 22.4788 25.1417 23.225 24.582C23.6673 24.2503 23.7639 23.6261 23.4426 23.1762C22.1341 21.3443 22.7225 18.7806 24.6988 17.7026L26.6484 16.6392Z" />
<path fill-rule="evenodd" clip-rule="evenodd" d="M10.8218 19.0474H14.6758C16.4897 19.0474 17.9602 20.5178 17.9602 22.3317C17.9602 24.1455 16.4898 25.616 14.6758 25.616H9.41309V23.6238H14.6758C15.3895 23.6238 15.968 23.0453 15.968 22.3317C15.968 21.6181 15.3894 21.0396 14.6758 21.0396H10.8218V19.0474Z" />
<path fill-rule="evenodd" clip-rule="evenodd" d="M10.3901 30.7233C11.5369 29.1845 13.3708 28.1777 15.4463 28.1777C18.9304 28.1777 21.7549 31.0022 21.7549 34.4863C21.7549 35.1046 21.6621 35.6977 21.4991 36.2559L19.5868 35.6976C19.7002 35.3091 19.7627 34.9038 19.7627 34.4863C19.7627 32.1024 17.8302 30.1699 15.4463 30.1699C14.0315 30.1699 12.7776 30.8537 11.9875 31.9138L10.3901 30.7233Z" />
<path fill-rule="evenodd" clip-rule="evenodd" d="M19.0039 14.7539V9.30859H20.9961V14.7539H19.0039Z" />
<path fill-rule="evenodd" clip-rule="evenodd" d="M23.6523 4.99219C22.1853 4.99219 20.9961 6.18141 20.9961 7.64844V8.3125H21.6602C23.1272 8.3125 24.3164 7.12328 24.3164 5.65625V4.99219H23.6523ZM19.0039 7.64844C19.0039 5.08115 21.0851 3 23.6523 3H26.3086V5.65625C26.3086 8.22353 24.2274 10.3047 21.6602 10.3047H19.0039V7.64844Z" />
<path fill-rule="evenodd" clip-rule="evenodd" d="M13.6914 3H16.3477C18.9149 3 20.9961 5.08115 20.9961 7.64844V10.3047H18.3398C15.7726 10.3047 13.6914 8.22353 13.6914 5.65625V3ZM15.6836 4.99219V5.65625C15.6836 7.12328 16.8728 8.3125 18.3398 8.3125H19.0039V7.64844C19.0039 6.18141 17.8147 4.99219 16.3477 4.99219H15.6836Z" />
</svg>
