<svg width="32" height="32" viewBox="0 0 32 32" fill="none" xmlns="http://www.w3.org/2000/svg">
<g clip-path="url(#clip0_54_386)">
<path d="M30.4375 23.3125H29.8618C29.6395 19.9543 28.2262 16.8276 25.8242 14.4257C23.4224 12.0237 20.2957 10.6104 16.9375 10.3881V8.9375H18.1054C18.6231 8.9375 19.0429 8.51775 19.0429 8C19.0429 7.48225 18.6231 7.0625 18.1054 7.0625H13.8946C13.3769 7.0625 12.9571 7.48225 12.9571 8C12.9571 8.51775 13.3769 8.9375 13.8946 8.9375H15.0625V10.3881C11.7043 10.6104 8.57763 12.0238 6.17569 14.4257C3.77375 16.8276 2.36044 19.9543 2.13812 23.3125H1.5625C0.700938 23.3125 0 24.0134 0 24.875C0 27.2529 1.93456 29.1875 4.3125 29.1875H27.6875C30.0654 29.1875 32 27.2529 32 24.875C32 24.0134 31.2991 23.3125 30.4375 23.3125ZM4.3125 27.3125C3.07425 27.3125 2.04875 26.3846 1.89494 25.1875H3.04387H28.9561H30.1051C29.9513 26.3846 28.9258 27.3125 27.6875 27.3125H4.3125ZM16 12.2314C22.3116 12.2314 27.5024 17.1219 27.9824 23.3125H4.01756C4.4975 17.1219 9.68838 12.2314 16 12.2314Z" fill="#2F6F2D"/>
<path d="M15.007 16.1721C15.041 16.1721 15.0754 16.1702 15.1099 16.1665C15.4035 16.1344 15.703 16.1182 16 16.1182C16.5177 16.1182 16.9375 15.6984 16.9375 15.1807C16.9375 14.6629 16.5177 14.2432 16 14.2432C15.6352 14.2432 15.2673 14.2632 14.9064 14.3026C14.3917 14.3588 14.02 14.8216 14.0762 15.3364C14.1287 15.8165 14.5349 16.1721 15.007 16.1721Z" fill="#2F6F2D"/>
<path d="M7.40343 21.2096C7.53356 21.2716 7.67074 21.3009 7.80587 21.3009C8.15612 21.3009 8.49224 21.1036 8.65293 20.7663C9.34824 19.3063 10.4511 18.0952 11.8423 17.2637C12.2867 16.9981 12.4317 16.4225 12.1661 15.978C11.9004 15.5336 11.3248 15.3886 10.8804 15.6542C9.17062 16.6761 7.81499 18.165 6.96018 19.9601C6.73743 20.4275 6.93593 20.987 7.40343 21.2096Z" fill="#2F6F2D"/>
</g>
<defs>
<clipPath id="clip0_54_386">
<rect width="32" height="32" fill="white"/>
</clipPath>
</defs>
</svg>
