<svg width="32" height="32" viewBox="0 0 32 32" fill="none" xmlns="http://www.w3.org/2000/svg">
<mask id="mask0_54_444" style="mask-type:luminance" maskUnits="userSpaceOnUse" x="0" y="0" width="32" height="32">
<path d="M0 1.90735e-06H32V32H0V1.90735e-06Z" fill="white"/>
</mask>
<g mask="url(#mask0_54_444)">
<path fill-rule="evenodd" clip-rule="evenodd" d="M7.5 29.125C7.5 29.6428 7.91973 30.0625 8.4375 30.0625H23.5625C24.0803 30.0625 24.5 29.6428 24.5 29.125V27.2391C28.8992 25.4031 32 21.0708 32 16C32 15.4822 31.5803 15.0625 31.0625 15.0625H0.9375C0.419733 15.0625 0 15.4822 0 16C0 21.0708 3.10083 25.4031 7.5 27.2391V29.125ZM9.375 28.1875V26.5961C9.375 26.1989 9.12476 25.8449 8.75038 25.7123C5.02684 24.3941 2.28508 21.0099 1.91715 16.9375H30.0829C29.7149 21.0099 26.9732 24.3941 23.2496 25.7123C22.8752 25.8449 22.625 26.1989 22.625 26.5961V28.1875H9.375Z" fill="#939693"/>
<path fill-rule="evenodd" clip-rule="evenodd" d="M0.641876 19.75C0.641876 20.2678 1.06161 20.6875 1.57938 20.6875H30.4206C30.9384 20.6875 31.3581 20.2678 31.3581 19.75C31.3581 19.2322 30.9384 18.8125 30.4206 18.8125H1.57938C1.06161 18.8125 0.641876 19.2322 0.641876 19.75Z" fill="#939693"/>
<path fill-rule="evenodd" clip-rule="evenodd" d="M9.7121 11.0379C10.0782 11.404 10.6718 11.404 11.0379 11.0379C12.4395 9.6363 12.4395 7.3637 11.0379 5.96209C10.3685 5.2927 10.3685 4.2073 11.0379 3.53791C11.404 3.1718 11.404 2.5782 11.0379 2.21209C10.6718 1.84597 10.0782 1.84597 9.7121 2.21209C8.31048 3.6137 8.31048 5.8863 9.7121 7.28791C10.3815 7.9573 10.3815 9.0427 9.7121 9.71209C9.34598 10.0782 9.34598 10.6718 9.7121 11.0379Z" fill="#939693"/>
<path fill-rule="evenodd" clip-rule="evenodd" d="M15.3371 11.0379C15.7032 11.404 16.2968 11.404 16.6629 11.0379C18.0645 9.6363 18.0645 7.3637 16.6629 5.96209C15.9935 5.2927 15.9935 4.2073 16.6629 3.53791C17.029 3.1718 17.029 2.5782 16.6629 2.21209C16.2968 1.84597 15.7032 1.84597 15.3371 2.21209C13.9355 3.6137 13.9355 5.8863 15.3371 7.28791C16.0065 7.9573 16.0065 9.0427 15.3371 9.71209C14.971 10.0782 14.971 10.6718 15.3371 11.0379Z" fill="#939693"/>
<path fill-rule="evenodd" clip-rule="evenodd" d="M20.9621 11.0379C21.3282 11.404 21.9218 11.404 22.2879 11.0379C23.6895 9.6363 23.6895 7.3637 22.2879 5.96209C21.6185 5.2927 21.6185 4.2073 22.2879 3.53791C22.654 3.1718 22.654 2.5782 22.2879 2.21209C21.9218 1.84597 21.3282 1.84597 20.9621 2.21209C19.5605 3.6137 19.5605 5.8863 20.9621 7.28791C21.6315 7.9573 21.6315 9.0427 20.9621 9.71209C20.596 10.0782 20.596 10.6718 20.9621 11.0379Z" fill="#939693"/>
</g>
</svg>
