<svg width="32" height="32" viewBox="0 0 32 32" fill="none" xmlns="http://www.w3.org/2000/svg">
<g clip-path="url(#clip0_54_437)">
<path fill-rule="evenodd" clip-rule="evenodd" d="M29.0232 2.60464V30.8836C29.0232 31.2973 28.794 31.6769 28.4279 31.8703C28.0617 32.0638 27.6197 32.0385 27.2773 31.8048L23.5639 29.2702L20.0528 31.79C19.6316 32.0936 19.0571 32.0653 18.6671 31.723L16 29.3908L13.3328 31.723C12.9429 32.0653 12.3684 32.0936 11.9472 31.79L8.4361 29.2702L4.72266 31.8048C4.38033 32.0385 3.93832 32.0638 3.57212 31.8703C3.20598 31.6768 2.97678 31.2973 2.97678 30.8836V2.60464C2.97683 1.16688 4.14219 0 5.58147 0H26.4186C27.8578 0 29.0232 1.16688 29.0232 2.60464ZM26.7907 2.60464C26.7907 2.39924 26.624 2.23255 26.4186 2.23255H5.58147C5.37608 2.23255 5.20938 2.39924 5.20938 2.60464V28.7701L7.82295 26.9856C8.20992 26.7206 8.72192 26.7266 9.10294 27.0004L12.5292 29.4607L15.2648 27.0674C15.6859 26.6983 16.3141 26.6983 16.7353 27.0674L19.4709 29.4607L22.8971 27.0004C23.2781 26.7266 23.7901 26.7206 24.1771 26.9856L26.7907 28.7701V2.60464Z" fill="#939693"/>
<path fill-rule="evenodd" clip-rule="evenodd" d="M10.0466 8.18604C9.43039 8.18604 8.9303 7.68595 8.9303 7.06976C8.9303 6.45358 9.43039 5.95349 10.0466 5.95349H21.9535C22.5697 5.95349 23.0698 6.45358 23.0698 7.06976C23.0698 7.68595 22.5697 8.18604 21.9535 8.18604H10.0466Z" fill="#939693"/>
<path fill-rule="evenodd" clip-rule="evenodd" d="M10.0466 14.1395C9.43039 14.1395 8.9303 13.6394 8.9303 13.0232C8.9303 12.407 9.43039 11.9069 10.0466 11.9069H21.9535C22.5697 11.9069 23.0698 12.407 23.0698 13.0232C23.0698 13.6394 22.5697 14.1395 21.9535 14.1395H10.0466Z" fill="#939693"/>
<path fill-rule="evenodd" clip-rule="evenodd" d="M10.0466 20.0929C9.43039 20.0929 8.9303 19.5928 8.9303 18.9766C8.9303 18.3604 9.43039 17.8604 10.0466 17.8604H16C16.6162 17.8604 17.1163 18.3604 17.1163 18.9766C17.1163 19.5928 16.6162 20.0929 16 20.0929H10.0466Z" fill="#939693"/>
</g>
<defs>
<clipPath id="clip0_54_437">
<rect width="32" height="32" fill="white"/>
</clipPath>
</defs>
</svg>
