<svg width="32" height="32" viewBox="0 0 32 32" fill="none" xmlns="http://www.w3.org/2000/svg">
<path d="M31.6942 13.1218L29.8242 11.2518C29.1327 10.5558 28.3099 10.0039 27.4036 9.62795C26.4973 9.25203 25.5254 9.0596 24.5442 9.0618C24.0097 9.06179 23.4767 9.11878 22.9542 9.23179V7.60179C22.9542 7.60179 22.9542 7.51179 22.9542 7.47179C22.9622 6.06431 23.5275 4.71733 24.5265 3.72584C25.5255 2.73434 26.8767 2.17913 28.2842 2.18179H29.8642V3.72179C29.8611 4.79531 29.5296 5.84217 28.9142 6.72179C28.8302 6.8367 28.7696 6.96704 28.7359 7.10536C28.7023 7.24368 28.6962 7.38728 28.718 7.52797C28.7398 7.66865 28.7891 7.80365 28.8631 7.92527C28.9371 8.04689 29.0343 8.15275 29.1492 8.23679C29.3813 8.40653 29.6713 8.47713 29.9554 8.43306C30.0961 8.41124 30.2311 8.36192 30.3527 8.28793C30.4743 8.21393 30.5802 8.1167 30.6642 8.00179C31.5435 6.74838 32.0117 5.25283 32.0042 3.72179V1.08179C32.0056 0.939596 31.9786 0.798557 31.9248 0.666922C31.871 0.535287 31.7914 0.415698 31.6909 0.315143C31.5903 0.214589 31.4708 0.135087 31.3391 0.081285C31.2075 0.0274828 31.0664 0.000459591 30.9242 0.00179488H28.2842C26.9951 -0.00188428 25.7272 0.329924 24.6051 0.964612C23.483 1.5993 22.5453 2.51503 21.8842 3.62179C21.5708 3.09807 21.1947 2.6145 20.7642 2.18179L18.8842 0.311795C18.6837 0.112111 18.4122 0 18.1292 0C17.8462 0 17.5748 0.112111 17.3742 0.311795L15.5042 2.19179C14.2661 3.42663 13.5045 5.05958 13.3542 6.8018L12.8842 6.33179C12.6837 6.13211 12.4122 6.02 12.1292 6.02C11.8462 6.02 11.5748 6.13211 11.3742 6.33179L9.49424 8.20179C8.25452 9.43258 7.48951 11.0618 7.33424 12.8018L6.86424 12.3318C6.66414 12.1351 6.3948 12.0249 6.11424 12.0249C5.83368 12.0249 5.56435 12.1351 5.36424 12.3318L3.48424 14.2018C2.34812 15.3322 1.60626 16.7985 1.36852 18.3834C1.13077 19.9684 1.40979 21.5878 2.16424 23.0018C2.32339 23.1888 2.54199 23.3153 2.78339 23.3603C3.02479 23.4052 3.27429 23.3657 3.49002 23.2484C3.70576 23.1312 3.87461 22.9433 3.96824 22.7163C4.06187 22.4893 4.07458 22.237 4.00424 22.0018C3.47324 20.985 3.28376 19.8243 3.46387 18.6914C3.64397 17.5585 4.18409 16.5138 5.00424 15.7118L6.13424 14.5918L7.25424 15.7018C8.25267 16.7045 8.81322 18.0618 8.81322 19.4768C8.81322 20.8918 8.25267 22.2491 7.25424 23.2518L5.36424 25.1318L0.364244 30.1318C0.25422 30.2283 0.165177 30.3464 0.102622 30.4788C0.0400682 30.6111 0.00533357 30.7549 0.000567377 30.9012C-0.00419881 31.0475 0.0211048 31.1932 0.0749129 31.3294C0.128721 31.4655 0.209889 31.5891 0.313396 31.6926C0.416903 31.7962 0.540547 31.8773 0.676679 31.9311C0.812811 31.9849 0.958536 32.0102 1.10484 32.0055C1.25114 32.0007 1.39491 31.966 1.52725 31.9034C1.65959 31.8409 1.77769 31.7518 1.87424 31.6418L6.11424 27.4018L7.23424 28.5218C8.63497 29.9214 10.5341 30.7076 12.5142 30.7076C14.4944 30.7076 16.3935 29.9214 17.7942 28.5218L19.6642 26.6518C19.8639 26.4513 19.976 26.1798 19.976 25.8968C19.976 25.6138 19.8639 25.3423 19.6642 25.1418L19.1942 24.6718C20.9345 24.5174 22.564 23.7522 23.7942 22.5118L25.6642 20.6418C25.8639 20.4413 25.976 20.1698 25.976 19.8868C25.976 19.6038 25.8639 19.3323 25.6642 19.1318L25.1942 18.6618C26.938 18.5097 28.5714 17.7444 29.8042 16.5018L31.6742 14.6318C31.8766 14.4339 31.9923 14.1639 31.9961 13.8809C31.9998 13.5979 31.8913 13.325 31.6942 13.1218ZM17.0042 3.70179L18.1242 2.58179L19.2542 3.70179C20.2467 4.69015 20.8075 6.03117 20.8142 7.43179V7.49179C20.8023 8.88547 20.2418 10.2183 19.2542 11.2018L18.1542 12.2918L17.0042 11.2418C16.509 10.7468 16.1161 10.1591 15.848 9.51223C15.58 8.86536 15.442 8.17201 15.442 7.47179C15.442 6.77158 15.58 6.07823 15.848 5.43136C16.1161 4.78449 16.509 4.19677 17.0042 3.70179ZM11.0042 9.70179L12.1242 8.58179L13.2442 9.70179C13.741 10.197 14.1352 10.7853 14.4041 11.4331C14.6731 12.0809 14.8115 12.7754 14.8115 13.4768C14.8115 14.1782 14.6731 14.8727 14.4041 15.5205C14.1352 16.1683 13.741 16.7566 13.2442 17.2518L12.9542 17.5518L12.1342 18.3718L11.0042 17.2518C10.5075 16.7566 10.1133 16.1683 9.84437 15.5205C9.57543 14.8727 9.43699 14.1782 9.43699 13.4768C9.43699 12.7754 9.57543 12.0809 9.84437 11.4331C10.1133 10.7853 10.5075 10.197 11.0042 9.70179ZM16.2942 27.0018C15.7991 27.4986 15.2107 27.8927 14.5629 28.1617C13.9152 28.4306 13.2206 28.569 12.5192 28.569C11.8178 28.569 11.1233 28.4306 10.4755 28.1617C9.82775 27.8927 9.2394 27.4986 8.74424 27.0018L7.62424 25.8918L8.74424 24.7718C9.2394 24.275 9.82775 23.8809 10.4755 23.6119C11.1233 23.343 11.8178 23.2045 12.5192 23.2045C13.2206 23.2045 13.9152 23.343 14.5629 23.6119C15.2107 23.8809 15.7991 24.275 16.2942 24.7718L17.4142 25.8918L16.2942 27.0018ZM22.2942 21.0018C21.7993 21.4971 21.2115 21.89 20.5647 22.158C19.9178 22.4261 19.2245 22.564 18.5242 22.564C17.824 22.564 17.1307 22.4261 16.4838 22.158C15.8369 21.89 15.2492 21.4971 14.7542 21.0018L13.6342 19.8818L14.7542 18.7618C15.2484 18.2656 15.836 17.8722 16.4831 17.6045C17.1302 17.3367 17.8239 17.1999 18.5242 17.2018C19.2245 17.1999 19.9183 17.3367 20.5654 17.6045C21.2125 17.8722 21.8001 18.2656 22.2942 18.7618L23.4142 19.8818L22.2942 21.0018ZM28.2942 15.0018C27.7993 15.4971 27.2115 15.89 26.5647 16.158C25.9178 16.4261 25.2245 16.564 24.5242 16.564C23.824 16.564 23.1307 16.4261 22.4838 16.158C21.8369 15.89 21.2492 15.4971 20.7542 15.0018L19.6342 13.8818L20.7542 12.7618C21.2492 12.2665 21.8369 11.8736 22.4838 11.6056C23.1307 11.3375 23.824 11.1996 24.5242 11.1996C25.2245 11.1996 25.9178 11.3375 26.5647 11.6056C27.2115 11.8736 27.7993 12.2665 28.2942 12.7618L29.4142 13.8818L28.2942 15.0018Z" fill="#939693"/>
</svg>
