<svg width="40" height="40" viewBox="0 0 40 40" fill="none" xmlns="http://www.w3.org/2000/svg">
<path d="M19.9533 36.667C19.6096 36.6668 19.2742 36.5603 18.9933 36.362C13.4083 32.4204 6.28502 26.5387 8.87335 20.9804C9.3475 19.8589 10.0999 18.877 11.0594 18.1275C12.0189 17.3779 13.1538 16.8856 14.3567 16.697C15.3984 16.624 16.4436 16.776 17.4214 17.1426C18.3991 17.5093 19.2865 18.082 20.0233 18.822C20.763 18.1003 21.6466 17.5427 22.6165 17.1857C23.5863 16.8287 24.6206 16.6804 25.6517 16.7504C26.8416 16.9299 27.9673 17.4055 28.9254 18.1336C29.8835 18.8616 30.6433 19.8187 31.135 20.917C33.725 26.4754 26.545 32.397 20.9183 36.3687C20.6353 36.5656 20.2981 36.6698 19.9533 36.667ZM14.965 20.0004C14.8721 19.9997 14.7791 20.0041 14.6867 20.0137C14.0688 20.1537 13.4937 20.4404 13.0098 20.8494C12.526 21.2584 12.1476 21.7778 11.9067 22.3637C10.8283 24.6787 13.61 28.322 19.9533 32.9487C26.2717 28.3337 29.1667 24.5787 28.11 22.322C27.853 21.7553 27.4672 21.2563 26.9834 20.8649C26.4997 20.4734 25.9312 20.2002 25.3234 20.067C24.5287 20.0624 23.7471 20.2692 23.0588 20.6664C22.3705 21.0635 21.8003 21.6367 21.4067 22.327C21.2501 22.5603 21.0395 22.7523 20.7929 22.8869C20.5463 23.0216 20.2709 23.0948 19.99 23.1004C19.7076 23.0988 19.4301 23.0255 19.1838 22.8873C18.9374 22.7491 18.7303 22.5506 18.5817 22.3104C18.216 21.657 17.6944 21.1043 17.0634 20.7012C16.4324 20.2982 15.7116 20.0575 14.965 20.0004Z" />
<path d="M20.0002 16.6668C18.6816 16.6668 17.3927 16.2758 16.2964 15.5433C15.2 14.8108 14.3456 13.7696 13.841 12.5514C13.3364 11.3332 13.2044 9.99277 13.4616 8.69956C13.7188 7.40636 14.3538 6.21847 15.2861 5.28612C16.2185 4.35377 17.4064 3.71883 18.6996 3.4616C19.9928 3.20436 21.3332 3.33638 22.5514 3.84097C23.7696 4.34555 24.8108 5.20004 25.5433 6.29636C26.2758 7.39269 26.6668 8.68162 26.6668 10.0002C26.6668 11.7683 25.9645 13.464 24.7142 14.7142C23.464 15.9645 21.7683 16.6668 20.0002 16.6668ZM20.0002 6.66683C19.3409 6.66683 18.6964 6.86233 18.1483 7.2286C17.6001 7.59487 17.1729 8.11547 16.9206 8.72455C16.6683 9.33364 16.6023 10.0039 16.7309 10.6505C16.8595 11.2971 17.177 11.891 17.6431 12.3572C18.1093 12.8234 18.7033 13.1408 19.3499 13.2695C19.9965 13.3981 20.6667 13.3321 21.2758 13.0798C21.8849 12.8275 22.4055 12.4002 22.7717 11.8521C23.138 11.3039 23.3335 10.6594 23.3335 10.0002C23.3335 9.11611 22.9823 8.26826 22.3572 7.64314C21.7321 7.01802 20.8842 6.66683 20.0002 6.66683Z" />
</svg>
