<svg width="32" height="32" viewBox="0 0 32 32" fill="none" xmlns="http://www.w3.org/2000/svg">
<path d="M16 0C7.16344 0 0 7.16344 0 16C0 24.8366 7.16344 32 16 32C24.8366 32 32 24.8366 32 16C32 7.16344 24.8366 0 16 0ZM16 30.5454C7.96675 30.5454 1.45456 24.0332 1.45456 16C1.45456 7.96675 7.96675 1.45456 16 1.45456C24.0332 1.45456 30.5454 7.96675 30.5454 16C30.5454 24.0332 24.0332 30.5454 16 30.5454Z" />
<path d="M19.4187 9.125H12.5563C10.6692 9.125 9.125 10.6692 9.125 12.5563V19.4191C9.125 21.3056 10.6692 22.8503 12.5563 22.8503H19.4187C21.3058 22.8503 22.85 21.3056 22.85 19.4191V12.5563C22.85 10.6692 21.3058 9.125 19.4187 9.125ZM21.7062 19.4191C21.7062 20.6801 20.6804 21.7065 19.4187 21.7065H12.5563C11.2951 21.7065 10.2688 20.6801 10.2688 19.4191V12.5563C10.2688 11.2949 11.2951 10.2688 12.5563 10.2688H19.4187C20.6804 10.2688 21.7062 11.2949 21.7062 12.5563V19.4191Z"/>
<path d="M19.7055 13.1282C20.1792 13.1282 20.5633 12.7442 20.5633 12.2704C20.5633 11.7967 20.1792 11.4126 19.7055 11.4126C19.2317 11.4126 18.8477 11.7967 18.8477 12.2704C18.8477 12.7442 19.2317 13.1282 19.7055 13.1282Z" />
<path d="M15.9874 12.5562C14.092 12.5562 12.5562 14.0921 12.5562 15.9874C12.5562 17.882 14.092 19.419 15.9874 19.419C17.8823 19.419 19.4187 17.882 19.4187 15.9874C19.4187 14.0921 17.8823 12.5562 15.9874 12.5562ZM15.9874 18.2752C14.7242 18.2752 13.7 17.251 13.7 15.9874C13.7 14.7238 14.7242 13.7 15.9874 13.7C17.2506 13.7 18.2748 14.7238 18.2748 15.9874C18.2748 17.251 17.2506 18.2752 15.9874 18.2752Z" />
</svg>
