<svg width="16" height="16" viewBox="0 0 16 16" fill="none" xmlns="http://www.w3.org/2000/svg">
<g clip-path="url(#clip0_688_712)">
<path d="M8 0C11.308 0 14 2.71067 14 6.04333C14 10.7787 8.564 15.668 8.33267 15.8733C8.23733 15.958 8.11867 16 8 16C7.88133 16 7.76267 15.958 7.66733 15.874C7.436 15.668 2 10.7787 2 6.04333C2 2.71067 4.692 0 8 0ZM8 9.33333C9.838 9.33333 11.3333 7.838 11.3333 6C11.3333 4.162 9.838 2.66667 8 2.66667C6.162 2.66667 4.66667 4.162 4.66667 6C4.66667 7.838 6.162 9.33333 8 9.33333Z" fill="#D2ECD1"/>
</g>
<defs>
<clipPath id="clip0_688_712">
<rect width="16" height="16" fill="white" transform="matrix(-1 0 0 1 16 0)"/>
</clipPath>
</defs>
</svg>
