<svg width="17" height="17" viewBox="0 0 17 17" fill="none" xmlns="http://www.w3.org/2000/svg">
<path d="M13.9938 3.9462L12.5042 2.45646C12.2545 2.20657 11.8489 2.20657 11.5994 2.45646L3.99076 10.0649C3.93811 10.1174 3.89509 10.1788 3.86358 10.2462L2.55347 13.0462C2.43941 13.2902 2.49008 13.5794 2.68066 13.7699C2.80336 13.8927 2.96706 13.9574 3.13331 13.9574C3.22498 13.9574 3.31763 13.9377 3.40435 13.897L6.20408 12.5868C6.27158 12.5553 6.33304 12.5122 6.38554 12.4596L13.9938 4.85132C14.2439 4.60127 14.2439 4.19611 13.9938 3.94622L13.9938 3.9462ZM5.55982 11.4751L4.46127 11.9893L4.97534 10.8906L10.5907 5.27518L11.1753 5.85966L5.55982 11.4751ZM12.0804 4.9546L11.4959 4.36996L12.0519 3.81397L12.6363 4.39861L12.0804 4.9546Z" />
</svg>
