<svg width="16" height="16" viewBox="0 0 16 16" fill="none" xmlns="http://www.w3.org/2000/svg">
<path d="M11.5201 7.35998H8.63998V4.47984C8.63998 4.1264 8.35342 3.83984 7.99998 3.83984C7.64654 3.83984 7.35998 4.1264 7.35998 4.47984V7.35998H4.47984C4.1264 7.35998 3.83984 7.64654 3.83984 7.99998C3.83984 8.35342 4.1264 8.63998 4.47984 8.63998H7.35998V11.5201C7.35998 11.8736 7.64654 12.1601 7.99998 12.1601C8.35342 12.1601 8.63998 11.8736 8.63998 11.5201V8.63998H11.5201C11.8736 8.63998 12.1601 8.35342 12.1601 7.99998C12.1601 7.64654 11.8736 7.35998 11.5201 7.35998Z" />
</svg>
