<svg width="163" height="162" viewBox="0 0 163 162" fill="none" xmlns="http://www.w3.org/2000/svg">
<g clip-path="url(#clip0_1007_1722)">
<path d="M162.5 77.6448C162.5 73.2831 158.952 69.7346 154.59 69.7346H8.41016C4.0485 69.7346 0.5 73.2831 0.5 77.6448C0.5 89.6831 10.2937 99.4768 22.332 99.4768H32.245C32.1324 99.6391 32.0204 99.8027 31.9119 99.9685L22.158 114.856H5.24609C2.62498 114.856 0.5 116.981 0.5 119.602C0.5 122.223 2.62498 124.348 5.24609 124.348H24.7225C26.3229 124.348 27.8154 123.542 28.6924 122.203L39.8518 105.17C42.1362 101.683 45.9888 99.6018 50.1571 99.6018H81.8949C84.1401 99.6018 85.9664 101.428 85.9664 103.673C85.9664 105.919 84.1401 107.745 81.8949 107.745H68.8105C61.3313 107.745 55.2468 113.829 55.2468 121.309C55.2468 128.787 61.3313 134.872 68.8105 134.872H82.6916C86.7777 134.872 90.7511 133.426 93.8803 130.798L126.984 103.01C128.568 101.679 130.815 101.518 132.574 102.608C134.223 103.629 134.668 105.165 134.787 105.989C134.906 106.813 134.912 108.411 133.618 109.857L101.584 145.655C97.687 150.01 92.1009 152.508 86.2578 152.508H5.24609C2.62498 152.508 0.5 154.633 0.5 157.254C0.5 159.875 2.62498 162 5.24609 162H86.2578C94.7979 162 102.962 158.35 108.657 151.986L140.691 116.187C143.513 113.034 144.785 108.824 144.182 104.636C143.912 102.763 143.279 100.992 142.341 99.4063C153.6 98.5482 162.5 89.1196 162.5 77.6448ZM140.668 89.9846H22.332C16.0634 89.9846 10.8718 85.2869 10.0931 79.2268H152.907C152.128 85.2869 146.937 89.9846 140.668 89.9846ZM87.7775 123.529C86.3549 124.723 84.5489 125.38 82.6916 125.38H68.8105C66.5653 125.38 64.739 123.554 64.739 121.309C64.739 119.064 66.5653 117.237 68.8105 117.237H81.8949C89.3741 117.237 95.4586 111.153 95.4586 103.674C95.4586 102.209 95.2222 100.799 94.791 99.4768H116.429L87.7775 123.529Z" fill="inherit"/>
<path d="M119.073 54.1874C119.073 56.8085 121.198 58.9335 123.819 58.9335H136.212C138.833 58.9335 140.958 56.8085 140.958 54.1874C140.958 51.5663 138.833 49.4413 136.212 49.4413H123.819C121.198 49.4413 119.073 51.5663 119.073 54.1874Z" fill="inherit"/>
<path d="M115.4 35.708C116.439 35.708 117.486 35.3679 118.361 34.6683L128.039 26.9287C130.086 25.2916 130.419 22.3051 128.782 20.2579C127.145 18.2108 124.159 17.8782 122.111 19.5153L112.433 27.2552C110.385 28.8923 110.053 31.8789 111.69 33.926C112.628 35.0983 114.007 35.708 115.4 35.708Z" fill="inherit"/>
<path d="M92.9307 21.0663C93.4129 21.2211 93.9017 21.2948 94.3824 21.2948C96.3893 21.2948 98.2539 20.0114 98.9003 17.9981L102.688 6.19872C103.489 3.70291 102.115 1.03054 99.6195 0.229087C97.1243 -0.572053 94.4513 0.802099 93.6499 3.2976L89.8622 15.0967C89.061 17.5925 90.4349 20.2649 92.9307 21.0663Z" fill="inherit"/>
<path d="M64.0991 17.9979C64.7455 20.0115 66.6098 21.2945 68.6171 21.2945C69.0977 21.2945 69.5865 21.2211 70.0687 21.0661C72.5645 20.2649 73.9384 17.5922 73.1372 15.0964L69.3495 3.29701C68.5484 0.801196 65.8754 -0.573273 63.3799 0.2285C60.8841 1.02964 59.5103 3.70232 60.3114 6.19814L64.0991 17.9979Z" fill="inherit"/>
<path d="M34.9608 26.9287L44.6393 34.6683C45.5145 35.3679 46.5609 35.708 47.6003 35.708C48.9928 35.708 50.3726 35.098 51.3101 33.926C52.9472 31.8789 52.6147 28.8923 50.5675 27.2552L40.889 19.5153C38.8415 17.8782 35.8549 18.2108 34.2182 20.2579C32.5814 22.3051 32.9136 25.2916 34.9608 26.9287Z" fill="inherit"/>
<path d="M26.7881 58.9335H39.1808C41.8019 58.9335 43.9269 56.8085 43.9269 54.1874C43.9269 51.5663 41.8019 49.4413 39.1808 49.4413H26.7881C24.167 49.4413 22.042 51.5663 22.042 54.1874C22.042 56.8085 24.167 58.9335 26.7881 58.9335Z" fill="inherit"/>
</g>
<defs>
<clipPath id="clip0_1007_1722">
<rect width="162" height="162" fill="white" transform="translate(0.5)"/>
</clipPath>
</defs>
</svg>
