<svg width="33" height="33" viewBox="0 0 33 33" fill="none" xmlns="http://www.w3.org/2000/svg">
<g clip-path="url(#clip0_55_843)">
<mask id="mask0_55_843" style="mask-type:luminance" maskUnits="userSpaceOnUse" x="0" y="0" width="33" height="33">
<path d="M0 3.8147e-06H33V33H0V3.8147e-06Z" fill="white"/>
</mask>
<g mask="url(#mask0_55_843)">
<path fill-rule="evenodd" clip-rule="evenodd" d="M0 16.5C0 25.6127 7.38714 33 16.5 33C25.6127 33 33 25.6127 33 16.5C33 7.38711 25.6126 -2.67029e-05 16.5 -2.67029e-05C7.38715 -2.67029e-05 0 7.38712 0 16.5ZM16.5 31.0664C8.45505 31.0664 1.93359 24.5448 1.93359 16.5C1.93359 8.45502 8.45504 1.93357 16.5 1.93357C24.5448 1.93357 31.0664 8.45502 31.0664 16.5C31.0664 24.5448 24.5448 31.0664 16.5 31.0664Z" fill="white"/>
<path fill-rule="evenodd" clip-rule="evenodd" d="M9.31982 14.4289C9.31982 18.3943 12.5343 21.6089 16.5 21.6089C20.4655 21.6089 23.68 18.3943 23.68 14.4289C23.68 10.4635 20.4655 7.24886 16.5 7.24886C12.5343 7.24886 9.31982 10.4635 9.31982 14.4289ZM16.5 19.6754C13.6022 19.6754 11.2534 17.3264 11.2534 14.4289C11.2534 11.5314 13.6022 9.18245 16.5 9.18245C19.3976 9.18245 21.7465 11.5314 21.7465 14.4289C21.7465 17.3264 19.3976 19.6754 16.5 19.6754Z" fill="white"/>
<path fill-rule="evenodd" clip-rule="evenodd" d="M25.8695 29.9284C26.4004 29.872 26.7852 29.3959 26.7288 28.8649C26.1804 23.6992 21.811 19.6754 16.5 19.6754C11.1892 19.6754 6.8197 23.6989 6.27111 28.8647C6.21472 29.3957 6.59944 29.8718 7.13041 29.9282C7.66137 29.9846 8.13751 29.5999 8.19389 29.0689C8.63917 24.8759 12.1886 21.609 16.5 21.609C20.8115 21.609 24.3609 24.8761 24.806 29.069C24.8624 29.6 25.3385 29.9847 25.8695 29.9284Z" fill="white"/>
</g>
</g>
<defs>
<clipPath id="clip0_55_843">
<rect width="33" height="33" fill="white"/>
</clipPath>
</defs>
</svg>
