<svg width="16" height="16" viewBox="0 0 16 16" fill="none" xmlns="http://www.w3.org/2000/svg">
<rect width="16" height="16" rx="1" fill="#4BB248"/>
<g clip-path="url(#clip0_682_120)">
<rect x="1" y="6" width="14" height="4" rx="1" fill="#4BB248"/>
<path d="M3.52246 7.72513C3.39129 7.71495 3.25003 7.71495 3.09364 7.72004C2.92715 7.73022 2.77075 7.74039 2.62949 7.75566C2.48823 7.77093 2.37219 7.79637 2.28643 7.832C2.20066 7.86762 2.1603 7.9236 2.16535 7.99994C2.16535 8.02029 2.17039 8.03047 2.17544 8.03556C2.18048 8.04065 2.19562 8.04065 2.21075 8.04065C2.34697 8.00502 2.48318 7.96431 2.62445 7.92869C2.76571 7.88798 2.90697 7.86253 3.04823 7.84217C3.03814 7.86253 3.03309 7.88798 3.02805 7.91851C3.01796 8.061 2.97255 8.19332 2.89688 8.31546C2.81616 8.43759 2.7203 8.54446 2.59922 8.63098C2.47814 8.72258 2.35201 8.79383 2.21075 8.84472C2.07454 8.89561 1.93832 8.92614 1.8021 8.93123C1.58517 8.94141 1.42373 8.9007 1.32787 8.79892C1.23201 8.69714 1.18156 8.56991 1.17147 8.41724C1.16643 8.26966 1.18661 8.11698 1.23706 7.95922C1.28751 7.80146 1.36318 7.6437 1.46409 7.49103C1.55994 7.33836 1.67598 7.20604 1.8021 7.0839C1.92823 6.96177 2.06445 6.86508 2.21075 6.78874C2.35706 6.7124 2.49832 6.67169 2.64463 6.6666C2.72535 6.66151 2.80102 6.67169 2.87165 6.70223C2.94228 6.72767 2.99273 6.77856 3.023 6.84981C3.03309 6.88543 3.04823 6.9007 3.06841 6.9007C3.0785 6.9007 3.08859 6.89052 3.10373 6.87016C3.11382 6.84981 3.11886 6.82945 3.11886 6.80401C3.11382 6.73785 3.08355 6.68187 3.02805 6.64625C2.97255 6.61062 2.90192 6.58518 2.81616 6.56991C2.73039 6.55464 2.64463 6.54955 2.55886 6.55464C2.39742 6.56482 2.24102 6.60044 2.08463 6.67169C1.92823 6.74294 1.78697 6.83454 1.65075 6.95159C1.51454 7.06864 1.3985 7.20095 1.2976 7.34854C1.1967 7.49612 1.11598 7.65388 1.06553 7.81673C1.01508 7.97958 0.989851 8.14752 0.994896 8.31037C1.00499 8.46813 1.04535 8.60044 1.12102 8.70731C1.20174 8.81927 1.30264 8.9007 1.42373 8.95159C1.54985 9.00248 1.69111 9.02793 1.84751 9.01775C1.96859 9.01266 2.08967 8.9923 2.21075 8.95668C2.33183 8.92106 2.44282 8.87525 2.53868 8.82436C2.6194 8.78365 2.70012 8.72767 2.78084 8.66151C2.86156 8.59536 2.93724 8.51902 3.00787 8.42742C3.0785 8.3409 3.12895 8.2493 3.16931 8.15261C3.20967 8.05592 3.22985 7.95413 3.22481 7.85235C3.22481 7.84726 3.22481 7.84217 3.22481 7.832C3.22481 7.82691 3.21976 7.81673 3.21472 7.81164C3.26517 7.80655 3.32066 7.80146 3.37616 7.80146C3.43165 7.80146 3.4821 7.79637 3.51742 7.78619C3.55778 7.78111 3.57796 7.76584 3.57291 7.75057C3.57796 7.74039 3.55778 7.72513 3.52246 7.72513Z" fill="#CAFDC8"/>
<path d="M3.89076 8.80907C3.81508 8.81416 3.74445 8.79889 3.68896 8.76327C3.5931 8.71238 3.53761 8.6106 3.53256 8.45793C3.52752 8.39686 3.53761 8.32052 3.55274 8.2391C3.56788 8.16785 3.59815 8.09151 3.64355 8.01009C3.68896 7.92866 3.74445 7.84724 3.80499 7.7709C3.87058 7.69457 3.93617 7.62841 4.01689 7.57752C4.09256 7.52663 4.17328 7.50118 4.24896 7.49609C4.27923 7.49609 4.3095 7.49609 4.33472 7.50627C4.37004 7.51645 4.39527 7.53172 4.42049 7.56225C4.44572 7.5877 4.46085 7.62841 4.46085 7.66912C4.46085 7.71492 4.45076 7.74037 4.43058 7.75055C4.40536 7.75564 4.39527 7.75055 4.39527 7.73528C4.39527 7.73019 4.39527 7.7251 4.39527 7.72001C4.39527 7.71492 4.39527 7.70983 4.39527 7.70983C4.39527 7.68948 4.38517 7.66912 4.37508 7.64877C4.35995 7.6335 4.33977 7.62332 4.30445 7.62332C4.25905 7.62332 4.2086 7.65385 4.14806 7.69966C4.08752 7.75055 4.02193 7.8167 3.96139 7.89813C3.90085 7.97955 3.84536 8.07116 3.79995 8.16276C3.75454 8.25945 3.72427 8.35614 3.71418 8.44775C3.71418 8.46301 3.70914 8.47319 3.70914 8.48846C3.70914 8.49864 3.70914 8.51391 3.70914 8.52917C3.71418 8.59024 3.72932 8.64622 3.75959 8.68693C3.78986 8.72765 3.83527 8.748 3.90085 8.74291C3.97653 8.73782 4.04716 8.70729 4.11779 8.64113C4.18337 8.58006 4.24391 8.50373 4.29941 8.41721C4.34986 8.3307 4.39022 8.25945 4.41544 8.19329C4.43563 8.1424 4.44572 8.10169 4.45581 8.06098C4.46085 8.02536 4.4659 7.99482 4.4659 7.96938C4.4659 7.94902 4.46085 7.92866 4.45581 7.9134C4.45076 7.89813 4.44572 7.88286 4.44067 7.87268C4.43563 7.85742 4.43058 7.84215 4.43058 7.83706C4.43058 7.8167 4.43563 7.79635 4.45581 7.78108C4.47094 7.76581 4.49112 7.76072 4.5113 7.75564C4.52644 7.75564 4.54662 7.76072 4.5668 7.7709C4.58698 7.77599 4.61725 7.77599 4.65761 7.78108C4.69797 7.78108 4.73833 7.78108 4.77869 7.78108C4.82409 7.78108 4.8695 7.77599 4.91995 7.7709C4.96535 7.76581 5.01076 7.76072 5.04608 7.75055C5.05112 7.74546 5.06121 7.74546 5.0713 7.74546C5.09148 7.74546 5.10157 7.75055 5.10157 7.76072C5.10157 7.7709 5.09148 7.78108 5.07635 7.79126C4.98554 7.84215 4.89977 7.8676 4.82409 7.87268C4.74842 7.87777 4.68283 7.88286 4.63238 7.88795C4.64247 7.95411 4.62734 8.03044 4.59707 8.11187C4.5668 8.19329 4.53148 8.26454 4.49617 8.32561C4.45076 8.39686 4.40536 8.4681 4.34481 8.54444C4.28932 8.62078 4.22373 8.68184 4.1531 8.73274C4.06734 8.77345 3.98157 8.80398 3.89076 8.80907Z" fill="#CAFDC8"/>
<path d="M6.60999 8.87015C6.46369 8.87524 6.36278 8.85489 6.30224 8.79891C6.2417 8.74293 6.21143 8.67168 6.20639 8.58008C6.20134 8.49356 6.21648 8.39687 6.25179 8.29C6.30224 8.12715 6.35774 7.95412 6.42333 7.77601C6.48891 7.59789 6.5545 7.42486 6.61504 7.25183C6.66549 7.10425 6.72098 6.95667 6.77143 6.804C6.82188 6.65132 6.8572 6.51901 6.87738 6.40705C6.7563 6.41214 6.63522 6.42741 6.51414 6.45285C6.39306 6.4783 6.27702 6.51392 6.17107 6.55463C6.06513 6.60043 5.98441 6.65132 5.92387 6.71748C5.86333 6.78364 5.83306 6.85489 5.8381 6.9414C5.84315 6.99738 5.85828 7.03809 5.8936 7.07372C5.92891 7.10425 5.96423 7.1297 5.99954 7.15005C6.0399 7.16532 6.07017 7.18059 6.09035 7.19585C6.11053 7.21112 6.12567 7.2213 6.12567 7.22639C6.12567 7.23148 6.12062 7.23657 6.11053 7.23657C6.09035 7.23657 6.04999 7.22639 5.98945 7.20094C5.93396 7.1755 5.87846 7.13478 5.82801 7.08898C5.77756 7.03809 5.75233 6.98211 5.74729 6.91087C5.74729 6.90578 5.74224 6.8956 5.7372 6.88542C5.73215 6.87524 5.72711 6.86506 5.72711 6.85489C5.71702 6.7531 5.7372 6.6615 5.79269 6.58517C5.84819 6.50883 5.92387 6.44776 6.02477 6.39687C6.12567 6.34598 6.23161 6.31036 6.35269 6.27982C6.47378 6.25438 6.5999 6.23911 6.72098 6.22893C6.74621 6.22893 6.77143 6.22893 6.79666 6.22384C6.82188 6.22384 6.84711 6.22384 6.87233 6.22384C6.86729 6.20349 6.86224 6.18822 6.84711 6.17295C6.84206 6.16277 6.83702 6.1526 6.83702 6.14751C6.83702 6.12715 6.84711 6.11188 6.87233 6.11188C6.89756 6.11188 6.92783 6.13224 6.95306 6.16786C6.96315 6.18822 6.97324 6.20349 6.97828 6.22384C7.13468 6.23402 7.26585 6.25947 7.37179 6.30527C7.39197 6.31036 7.4172 6.33071 7.44747 6.35107C7.47774 6.37651 7.49288 6.39687 7.49288 6.41214C7.49288 6.42741 7.48279 6.43249 7.46261 6.43249C7.45252 6.43249 7.43738 6.43249 7.42224 6.43249C7.40711 6.43249 7.38693 6.42741 7.36675 6.41723C7.26585 6.39178 7.14477 6.3816 6.99846 6.3816C6.99846 6.49865 6.98333 6.64115 6.94801 6.804C6.91269 6.96685 6.86729 7.12461 6.81179 7.27728C6.73612 7.48084 6.66549 7.6844 6.5999 7.89814C6.53432 8.11188 6.49396 8.30527 6.48891 8.4783C6.48891 8.48847 6.48387 8.49865 6.48891 8.51392C6.48891 8.5241 6.48891 8.53428 6.48891 8.54445C6.49396 8.62079 6.50909 8.67168 6.53936 8.70221C6.56963 8.73275 6.60999 8.74802 6.66044 8.74802C6.73612 8.74293 6.82693 8.71239 6.92783 8.64623C7.02873 8.58008 7.12963 8.50883 7.23053 8.42741C7.40711 8.27982 7.55846 8.11697 7.68459 7.94903C7.81071 7.78109 7.92675 7.59789 8.04279 7.39433C8.14369 7.21112 8.24459 7.02791 8.3354 6.84471C8.43125 6.6615 8.5372 6.48847 8.66333 6.32053C8.6936 6.27473 8.739 6.22893 8.78945 6.17804C8.84495 6.12715 8.90549 6.08644 8.97612 6.05081C9.04675 6.01519 9.11234 5.99484 9.17792 5.98975C9.1981 5.98975 9.22333 5.98975 9.24855 5.99484C9.27378 5.99992 9.29396 6.0101 9.31414 6.02028C9.33432 6.03046 9.33936 6.04064 9.33432 6.05081C9.32927 6.06099 9.32423 6.06608 9.31414 6.06608C9.30405 6.06608 9.299 6.06608 9.28891 6.06608C9.27882 6.06608 9.27378 6.06608 9.26873 6.06608C9.20819 6.07117 9.13756 6.11188 9.06188 6.1984C8.98116 6.27982 8.8954 6.39178 8.79954 6.53428C8.70369 6.67168 8.59774 6.82944 8.4817 6.99738C8.37071 7.17041 8.24963 7.34344 8.12351 7.52155C7.99233 7.70985 7.85612 7.89305 7.7199 8.06608C7.57864 8.2442 7.43738 8.39687 7.29107 8.5241C7.18008 8.62079 7.06405 8.70221 6.95306 8.76328C6.83702 8.82944 6.72603 8.85998 6.60999 8.87015Z" fill="white"/>
<path d="M8.77946 8.58521C8.65838 8.5903 8.54739 8.56994 8.45658 8.51396C8.36577 8.46307 8.31532 8.37656 8.31027 8.25442C8.30523 8.19335 8.32036 8.11193 8.35568 8.02033C8.3809 7.95417 8.42631 7.88292 8.49694 7.79641C8.56757 7.70989 8.64829 7.62338 8.74415 7.54195C8.84 7.46053 8.93586 7.38928 9.03171 7.3333C9.12757 7.27732 9.21838 7.24679 9.30415 7.2417C9.33442 7.2417 9.35964 7.2417 9.38487 7.25188C9.43027 7.26714 9.46559 7.29259 9.48577 7.32312C9.50595 7.35875 9.51604 7.39437 9.51604 7.43508C9.51604 7.47071 9.51604 7.50633 9.50595 7.53686C9.49586 7.57249 9.48577 7.59793 9.47063 7.62338C9.42523 7.69971 9.35964 7.77096 9.26883 7.83203C9.17802 7.8931 9.09225 7.94399 8.9964 7.97961C8.90054 8.01524 8.82991 8.04068 8.76937 8.05086H8.75928C8.72397 8.05086 8.70379 8.04068 8.70379 8.02033C8.70379 8.00506 8.71388 7.99997 8.73406 7.99997C8.79964 7.98979 8.88036 7.95417 8.97622 7.8931C9.07207 7.83203 9.15784 7.77096 9.23352 7.7048C9.26379 7.67427 9.30415 7.63356 9.34451 7.58267C9.38487 7.53178 9.40505 7.48088 9.40505 7.43508C9.40505 7.38419 9.37982 7.36384 9.32937 7.36384C9.30415 7.36384 9.27892 7.37401 9.2537 7.38419C9.22847 7.39437 9.20829 7.40455 9.19316 7.40964C9.11748 7.45035 9.03171 7.51651 8.9409 7.60302C8.85009 7.68954 8.76937 7.78623 8.6937 7.88801C8.62307 7.98979 8.57262 8.09666 8.54739 8.19844C8.54234 8.2188 8.5373 8.24424 8.53225 8.2646C8.53225 8.28496 8.53225 8.30531 8.53225 8.32567C8.5373 8.39183 8.55748 8.43763 8.60288 8.46307C8.64829 8.48852 8.69874 8.4987 8.75928 8.4987C8.85009 8.49361 8.9409 8.46816 9.03676 8.42745C9.13262 8.38165 9.21838 8.32567 9.30919 8.25951C9.39496 8.19335 9.47568 8.12211 9.54631 8.04068C9.61694 7.96435 9.67748 7.88801 9.72793 7.81676C9.73802 7.80658 9.74307 7.79641 9.75316 7.79641C9.76325 7.79641 9.77334 7.79641 9.77334 7.8015C9.78343 7.8015 9.78847 7.81167 9.78847 7.82185C9.78847 7.83203 9.78847 7.8473 9.78343 7.85748C9.7128 7.96943 9.62703 8.0763 9.52108 8.18317C9.42018 8.29005 9.30415 8.38165 9.17802 8.45289C9.05189 8.53432 8.92072 8.57503 8.77946 8.58521Z" fill="white"/>
<path d="M9.61182 9.9948C9.57651 9.98971 9.55128 9.97953 9.52606 9.97444C9.47056 9.949 9.43524 9.91846 9.41002 9.88793C9.38479 9.85231 9.3747 9.81668 9.36966 9.78106C9.36461 9.71999 9.38479 9.64874 9.42515 9.57241C9.46551 9.49607 9.51597 9.41974 9.58155 9.33831C9.64714 9.2518 9.72786 9.16528 9.82876 9.07368C9.92966 8.98208 10.0356 8.89556 10.1466 8.81414C10.2576 8.72762 10.3534 8.65638 10.4392 8.59531C10.525 8.39684 10.6007 8.20854 10.6662 8.03042C10.7318 7.85231 10.7772 7.7149 10.8025 7.61821C10.747 7.68437 10.6915 7.75561 10.6309 7.84213C10.5704 7.92355 10.525 7.98462 10.4947 8.02025C10.4443 8.07622 10.3888 8.14238 10.3282 8.20854C10.2677 8.2747 10.2021 8.33577 10.1315 8.38157C10.0608 8.43246 9.9902 8.4579 9.92461 8.4579C9.87921 8.4579 9.8338 8.44773 9.78335 8.42737C9.7329 8.40192 9.69254 8.37139 9.66227 8.33068C9.61687 8.27979 9.59669 8.22381 9.59164 8.16274C9.5866 8.0864 9.61182 8.01007 9.65723 7.92864C9.70263 7.84722 9.76317 7.76579 9.84389 7.68437C9.91957 7.60294 10.0053 7.5317 10.0911 7.46554C10.1769 7.39938 10.2626 7.3434 10.3434 7.2976C10.4241 7.2518 10.4897 7.22126 10.5401 7.20091C10.5906 7.18055 10.6461 7.17037 10.7167 7.16528C10.747 7.16528 10.7873 7.16528 10.8378 7.17546C10.8832 7.18564 10.9286 7.20091 10.9639 7.22126C11.0043 7.24162 11.0194 7.27724 11.0244 7.31795C11.0244 7.33831 11.0143 7.34849 10.9942 7.33831C10.974 7.30778 10.9437 7.28742 10.9084 7.27724C10.8731 7.26706 10.8327 7.26706 10.7974 7.26706C10.6915 7.27215 10.5754 7.31287 10.4443 7.39429C10.3131 7.47063 10.2021 7.56223 10.1012 7.66401C10.0709 7.69455 10.0255 7.74035 9.97506 7.81159C9.91957 7.88284 9.87416 7.95918 9.8338 8.0406C9.79344 8.12203 9.77326 8.19836 9.77831 8.26452C9.77831 8.30014 9.79344 8.33068 9.81362 8.35612C9.82371 8.37139 9.83885 8.37648 9.86407 8.37648C9.91452 8.37139 9.98011 8.34594 10.0507 8.29505C10.1214 8.24416 10.2021 8.1831 10.2828 8.10676C10.3635 8.03042 10.4443 7.949 10.5199 7.86757C10.5956 7.78106 10.6662 7.70472 10.7217 7.63348C10.7823 7.56223 10.8226 7.50625 10.8529 7.47063C10.8579 7.45536 10.868 7.44518 10.8781 7.44009C10.8933 7.435 10.9084 7.42991 10.9235 7.42991C10.9689 7.42991 11.0143 7.435 11.0597 7.46045C11.1102 7.4808 11.1304 7.50116 11.1203 7.51643C11.0749 7.63348 11.0194 7.76579 10.9588 7.91846C10.8983 8.07114 10.8327 8.2289 10.7621 8.39684C10.7974 8.37648 10.8529 8.33068 10.9336 8.25943C11.0143 8.18818 11.1001 8.10676 11.1909 8.01007C11.2868 7.91337 11.3725 7.81159 11.4533 7.70981C11.4835 7.67419 11.5088 7.65383 11.5239 7.65383C11.539 7.65383 11.5441 7.6691 11.539 7.69455C11.534 7.72508 11.5138 7.7607 11.4785 7.8065C11.4381 7.86248 11.3826 7.92864 11.307 8.00498C11.2363 8.08131 11.1556 8.15765 11.0749 8.23907C10.9942 8.3205 10.9185 8.39175 10.8479 8.45282C10.7772 8.51388 10.7217 8.55969 10.6864 8.58513C10.6107 8.76834 10.5351 8.94645 10.4644 9.1093C10.3938 9.27215 10.3282 9.40956 10.2677 9.51134C10.2273 9.58259 10.1769 9.65383 10.1163 9.73017C10.0558 9.8065 9.9902 9.86757 9.91957 9.91846C9.84894 9.96935 9.77326 9.99989 9.69254 9.99989C9.68245 9.99989 9.67236 9.99989 9.66227 9.99989C9.63705 9.99989 9.62696 9.99989 9.61182 9.9948ZM9.56642 9.89302C9.58155 9.9032 9.60678 9.9032 9.63705 9.88793C9.66732 9.87775 9.70768 9.84722 9.75308 9.8065C9.85398 9.7149 9.93975 9.61312 10.0104 9.49607C10.081 9.37902 10.1466 9.25689 10.2021 9.12457C10.2576 8.99734 10.3131 8.87521 10.3635 8.75307C10.2626 8.83958 10.1466 8.93628 10.0154 9.05332C9.8893 9.17037 9.77326 9.28233 9.66732 9.39429C9.61687 9.45027 9.57146 9.51643 9.54119 9.58259C9.50588 9.65383 9.49074 9.7149 9.49578 9.77088C9.50083 9.83195 9.52606 9.87266 9.56642 9.89302Z" fill="white"/>
<path d="M12.5481 8.3764C12.5027 8.3764 12.4573 8.37131 12.4169 8.35095C12.3765 8.3306 12.3463 8.28989 12.321 8.23391C12.311 8.20846 12.3059 8.17793 12.3059 8.13212C12.3009 8.07106 12.3059 8.0049 12.321 7.92856C12.3362 7.85223 12.3463 7.79116 12.3664 7.73518C12.3513 7.74027 12.3311 7.76571 12.2958 7.81151C12.2605 7.85731 12.2201 7.90821 12.1697 7.96927C12.1192 8.03034 12.0637 8.09141 12.0032 8.15757C11.9427 8.21864 11.8771 8.26953 11.8115 8.31533C11.7459 8.35604 11.6803 8.38149 11.6147 8.38149C11.5693 8.38149 11.5239 8.37131 11.4735 8.35095C11.423 8.32551 11.3827 8.29497 11.3524 8.25426C11.307 8.20337 11.2868 8.14739 11.2818 8.08632C11.2767 8.00999 11.3019 7.93365 11.3474 7.85223C11.3928 7.7708 11.4533 7.68938 11.534 7.60795C11.6097 7.52653 11.6955 7.45528 11.7812 7.38912C11.867 7.32296 11.9528 7.26698 12.0335 7.22118C12.1142 7.17538 12.1798 7.14485 12.2302 7.12449C12.2857 7.10413 12.3463 7.09396 12.4119 7.08887C12.4522 7.08887 12.4875 7.08887 12.5329 7.09905C12.5733 7.10922 12.6086 7.1194 12.6389 7.13976C12.6591 7.14994 12.6792 7.1652 12.6944 7.18047C12.7095 7.20083 12.7146 7.22118 12.7196 7.24154C12.7196 7.2619 12.7095 7.27207 12.6944 7.2619C12.6692 7.23136 12.6389 7.211 12.6036 7.20083C12.5683 7.19065 12.5279 7.19065 12.4926 7.19065C12.3816 7.19574 12.2655 7.23645 12.1394 7.31787C12.0133 7.39421 11.8973 7.48581 11.8014 7.5876C11.7711 7.61813 11.7257 7.66393 11.6753 7.73518C11.6248 7.80642 11.5744 7.88276 11.534 7.96419C11.4937 8.04561 11.4735 8.12195 11.4735 8.1881C11.4735 8.22373 11.4886 8.25426 11.5088 8.27971C11.5189 8.30006 11.5391 8.30515 11.5643 8.30515C11.6046 8.30515 11.6501 8.27971 11.7156 8.23391C11.7762 8.1881 11.8418 8.13721 11.9073 8.07614C11.9729 8.01508 12.0335 7.95401 12.0839 7.89803C12.1394 7.84205 12.1747 7.79625 12.2 7.7708C12.2151 7.75553 12.2403 7.725 12.2756 7.68429C12.311 7.63849 12.3513 7.59268 12.3967 7.54179C12.4421 7.4909 12.4825 7.4451 12.5128 7.40948C12.5481 7.37385 12.5733 7.3535 12.5834 7.3535C12.5985 7.3535 12.6187 7.3535 12.649 7.35859C12.6792 7.36368 12.7095 7.37385 12.7297 7.38403C12.7499 7.3993 12.7549 7.41457 12.7448 7.43492C12.6792 7.54179 12.6288 7.65375 12.5935 7.7708C12.5582 7.88785 12.538 7.97945 12.5329 8.04561C12.5329 8.05579 12.5279 8.06597 12.5279 8.07614C12.5279 8.08632 12.5279 8.0965 12.5279 8.10668C12.5329 8.21864 12.5733 8.26953 12.649 8.26444C12.6893 8.26444 12.7448 8.23391 12.8104 8.18301C12.876 8.13212 12.9416 8.06597 13.0122 7.99472C13.0778 7.92347 13.1434 7.85223 13.1989 7.78607C13.2544 7.71991 13.2897 7.66902 13.3099 7.6334C13.32 7.62322 13.325 7.61813 13.3351 7.61813C13.3452 7.61813 13.3553 7.62322 13.3654 7.6334C13.3755 7.64357 13.3755 7.65375 13.3654 7.66902C13.3401 7.71991 13.2947 7.78098 13.2443 7.85223C13.1888 7.92347 13.1283 7.99472 13.0627 8.06597C12.9971 8.13721 12.9264 8.19828 12.8609 8.25426C12.8255 8.2848 12.7852 8.31024 12.7297 8.3306C12.6591 8.36113 12.6036 8.37131 12.5481 8.3764Z" fill="white"/>
<path d="M13.0879 8.36136C13.0677 8.36136 13.0627 8.35118 13.0677 8.33083C13.0728 8.31556 13.0879 8.27485 13.1081 8.21378C13.1283 8.15271 13.1485 8.08146 13.1737 8.00004C13.1989 7.91861 13.2241 7.82701 13.2494 7.7405C13.2746 7.64889 13.2998 7.56747 13.32 7.49113C13.3402 7.4148 13.3604 7.35373 13.3755 7.30793C13.3805 7.29266 13.3856 7.26721 13.3906 7.23668C13.3957 7.20615 13.4058 7.17561 13.4209 7.15017C13.436 7.12472 13.4663 7.10945 13.5117 7.10436C13.5924 7.09928 13.6328 7.11963 13.6378 7.15525C13.6378 7.17052 13.6328 7.19088 13.6227 7.2265C13.5924 7.30284 13.5622 7.38935 13.5268 7.48604C13.4915 7.58274 13.4613 7.67434 13.436 7.76085C13.4108 7.84737 13.3906 7.91352 13.3755 7.96442C13.4007 7.9237 13.4411 7.86772 13.5016 7.79139C13.5571 7.71505 13.6227 7.63872 13.6984 7.5522C13.769 7.46569 13.8447 7.38426 13.9254 7.30284C14.0061 7.22141 14.0818 7.15525 14.1474 7.10436C14.218 7.05347 14.2785 7.02803 14.329 7.02294C14.3946 7.01785 14.4299 7.05347 14.4299 7.12472C14.4299 7.15017 14.4249 7.18579 14.4148 7.23668C14.3946 7.30793 14.3643 7.37408 14.329 7.44024C14.2937 7.5064 14.2634 7.57765 14.2382 7.64889C14.1928 7.78121 14.1676 7.88808 14.1625 7.96442C14.1625 7.97459 14.1575 7.98477 14.1575 7.99495C14.1575 8.00513 14.1575 8.01531 14.1575 8.02548C14.1625 8.13744 14.2029 8.18833 14.2735 8.18324C14.3139 8.18324 14.3694 8.15271 14.4349 8.10182C14.5005 8.05093 14.5661 7.98477 14.6367 7.91352C14.7074 7.84228 14.7679 7.77103 14.8234 7.70487C14.8789 7.63872 14.9142 7.58782 14.9344 7.5522C14.9445 7.54202 14.9495 7.53693 14.9596 7.53693C14.9697 7.53693 14.9798 7.54202 14.9849 7.54711C14.9899 7.55729 14.9949 7.56747 14.9899 7.57765C14.9697 7.62345 14.9294 7.68452 14.8739 7.76085C14.8184 7.8321 14.7578 7.90844 14.6922 7.97968C14.6267 8.05093 14.556 8.11709 14.4904 8.16798C14.4501 8.19851 14.3996 8.22396 14.3441 8.2494C14.2836 8.27485 14.2281 8.28503 14.1676 8.28503C14.0919 8.27994 14.0364 8.25449 14.0011 8.21378C13.9658 8.16798 13.9456 8.11709 13.9456 8.05093C13.9405 7.97459 13.9506 7.89826 13.9758 7.81174C14.0011 7.72523 14.0263 7.6438 14.0616 7.56747C14.0919 7.49113 14.1171 7.43515 14.1373 7.39444C14.1575 7.34864 14.1676 7.31302 14.1625 7.28757C14.1625 7.26721 14.1524 7.25704 14.1322 7.25704C14.1121 7.25704 14.0868 7.2723 14.0465 7.29775C14.0112 7.32319 13.9607 7.369 13.8951 7.43515C13.8396 7.49113 13.7791 7.56238 13.7135 7.64889C13.6479 7.73541 13.5874 7.82701 13.5268 7.91861C13.4663 8.01022 13.4158 8.08655 13.3704 8.15271C13.325 8.21887 13.2948 8.25958 13.2746 8.26976C13.2594 8.27994 13.2292 8.2952 13.1838 8.31556C13.1485 8.35118 13.1131 8.36136 13.0879 8.36136Z" fill="white"/>
</g>
<defs>
<clipPath id="clip0_682_120">
<rect x="1" y="6" width="14" height="4" rx="1" fill="white"/>
</clipPath>
</defs>
</svg>
