<svg width="161" height="45" viewBox="0 0 161 45" fill="none" xmlns="http://www.w3.org/2000/svg">
<g clip-path="url(#clip0_766_774)">
<path d="M29.3288 19.4084C27.8297 19.2939 26.2153 19.2939 24.4279 19.3512C22.5252 19.4657 20.7378 19.5802 19.1234 19.7519C17.509 19.9237 16.1828 20.2099 15.2027 20.6107C14.2225 21.0115 13.7612 21.6412 13.8189 22.5C13.8189 22.729 13.8765 22.8435 13.9342 22.9008C13.9918 22.958 14.1648 22.958 14.3378 22.958C15.8946 22.5573 17.4513 22.0992 19.0657 21.6985C20.6801 21.2405 22.2946 20.9542 23.909 20.7252C23.7937 20.9542 23.736 21.2405 23.6783 21.584C23.563 23.187 23.0441 24.6756 22.1792 26.0496C21.2567 27.4237 20.1612 28.626 18.7774 29.5992C17.3937 30.6298 15.9522 31.4313 14.3378 32.0038C12.781 32.5763 11.2243 32.9199 9.66752 32.9771C7.18825 33.0916 5.3432 32.6336 4.2477 31.4886C3.15221 30.3435 2.57563 28.9122 2.46032 27.1947C2.40266 25.5344 2.63329 23.8168 3.20987 22.042C3.78644 20.2672 4.65131 18.4924 5.80446 16.7748C6.89996 15.0573 8.22608 13.5687 9.66752 12.1947C11.109 10.8206 12.6657 9.73283 14.3378 8.87405C16.0099 8.01527 17.6243 7.55726 19.2964 7.50001C20.2189 7.44275 21.0837 7.55726 21.8909 7.90077C22.6982 8.18703 23.2747 8.75955 23.6207 9.56107C23.736 9.96184 23.909 10.1336 24.1396 10.1336C24.2549 10.1336 24.3702 10.0191 24.5432 9.79008C24.6585 9.56107 24.7162 9.33207 24.7162 9.04581C24.6585 8.30153 24.3126 7.67176 23.6783 7.271C23.0441 6.87023 22.2369 6.58398 21.2567 6.41222C20.2765 6.24046 19.2964 6.18321 18.3162 6.24046C16.4711 6.35497 14.6837 6.75573 12.8964 7.55726C11.109 8.35878 9.49455 9.38932 7.93779 10.7061C6.38104 12.0229 5.05491 13.5115 3.90176 15.1718C2.74861 16.8321 1.82608 18.6069 1.24951 20.4389C0.67293 22.271 0.384642 24.1603 0.4423 25.9924C0.557615 27.7672 1.01888 29.2557 1.88374 30.458C2.80626 31.7176 3.95942 32.6336 5.3432 33.2061C6.78464 33.7786 8.39906 34.0649 10.1864 33.9504C11.5702 33.8931 12.954 33.6641 14.3378 33.2634C15.7216 32.8626 16.99 32.3473 18.0855 31.7748C19.0081 31.3168 19.9306 30.687 20.8531 29.9428C21.7756 29.1985 22.6405 28.3397 23.4477 27.3092C24.2549 26.3359 24.8315 25.3053 25.2928 24.2176C25.754 23.1298 25.9846 21.9847 25.927 20.8397C25.927 20.7824 25.927 20.7252 25.927 20.6107C25.927 20.5534 25.8693 20.4389 25.8117 20.3817C26.3882 20.3244 27.0225 20.2672 27.6567 20.2672C28.2909 20.2672 28.8675 20.2099 29.2711 20.0954C29.7324 20.0382 29.963 19.8664 29.9054 19.6947C29.963 19.5802 29.7324 19.4084 29.3288 19.4084Z" fill="#4BB248"/>
<path d="M33.5379 31.6031C32.673 31.6603 31.8658 31.4885 31.2316 31.0878C30.1361 30.5153 29.5019 29.3702 29.4442 27.6527C29.3865 26.9656 29.5019 26.1069 29.6748 25.1908C29.8478 24.3893 30.1937 23.5305 30.7127 22.6145C31.2316 21.6985 31.8658 20.7824 32.5577 19.9237C33.3073 19.0649 34.0568 18.3206 34.9793 17.7481C35.8442 17.1756 36.7667 16.8893 37.6316 16.8321C37.9775 16.8321 38.3235 16.8321 38.6118 16.9466C39.0154 17.0611 39.3037 17.2328 39.5919 17.5763C39.8802 17.8626 40.0532 18.3206 40.0532 18.7786C40.0532 19.2939 39.9379 19.5802 39.7073 19.6947C39.419 19.7519 39.3037 19.6947 39.3037 19.5229C39.3037 19.4656 39.3037 19.4084 39.3037 19.3511C39.3037 19.2939 39.3037 19.2366 39.3037 19.2366C39.3037 19.0076 39.1883 18.7786 39.073 18.5496C38.9001 18.3779 38.6694 18.2634 38.2658 18.2634C37.7469 18.2634 37.1703 18.6069 36.4784 19.1221C35.7865 19.6947 35.037 20.4389 34.3451 21.355C33.6532 22.271 33.019 23.3015 32.5001 24.3321C31.9811 25.4198 31.6352 26.5076 31.5199 27.5382C31.5199 27.7099 31.4622 27.8244 31.4622 27.9962C31.4622 28.1107 31.4622 28.2824 31.4622 28.4542C31.5199 29.1412 31.6928 29.771 32.0388 30.229C32.3847 30.687 32.9037 30.916 33.6532 30.8588C34.5181 30.8015 35.3253 30.458 36.1325 29.7137C36.882 29.0267 37.5739 28.1679 38.2082 27.1947C38.7847 26.2214 39.246 25.4198 39.5343 24.6756C39.7649 24.1031 39.8802 23.645 39.9955 23.187C40.0532 22.7863 40.1109 22.4427 40.1109 22.1565C40.1109 21.9275 40.0532 21.6985 39.9955 21.5267C39.9379 21.355 39.8802 21.1832 39.8226 21.0687C39.7649 20.8969 39.7073 20.7252 39.7073 20.6679C39.7073 20.4389 39.7649 20.2099 39.9955 20.0382C40.1685 19.8664 40.3992 19.8092 40.6298 19.7519C40.8028 19.7519 41.0334 19.8092 41.264 19.9237C41.4946 19.9809 41.8406 19.9809 42.3019 20.0382C42.7631 20.0382 43.2244 20.0382 43.6856 20.0382C44.2046 20.0382 44.7235 19.9809 45.3 19.9237C45.819 19.8664 46.3379 19.8092 46.7415 19.6947C46.7991 19.6374 46.9145 19.6374 47.0298 19.6374C47.2604 19.6374 47.3757 19.6947 47.3757 19.8092C47.3757 19.9237 47.2604 20.0382 47.0874 20.1527C46.0496 20.7252 45.0694 21.0115 44.2046 21.0687C43.3397 21.126 42.5901 21.1832 42.0136 21.2405C42.1289 21.9847 41.9559 22.8435 41.61 23.7595C41.264 24.6756 40.8604 25.4771 40.4568 26.1641C39.9379 26.9656 39.419 27.7672 38.7271 28.626C38.0928 29.4847 37.3433 30.1718 36.5361 30.7443C35.5559 31.2023 34.5757 31.5458 33.5379 31.6031Z" fill="#4BB248"/>
<path d="M64.6152 32.2901C62.9432 32.3473 61.79 32.1183 61.0981 31.4886C60.4062 30.8588 60.0603 30.0573 60.0026 29.0267C59.945 28.0534 60.1179 26.9657 60.5215 25.7634C61.0981 23.9313 61.7324 21.9847 62.4819 19.9809C63.2315 17.9771 63.981 16.0305 64.6729 14.084C65.2495 12.4237 65.8837 10.7634 66.4603 9.0458C67.0369 7.32825 67.4405 5.8397 67.6711 4.58015C66.2873 4.63741 64.9035 4.80916 63.5197 5.09542C62.136 5.38168 60.8098 5.78244 59.599 6.24046C58.3882 6.75573 57.4657 7.32825 56.7738 8.07252C56.0819 8.8168 55.736 9.61832 55.7936 10.5916C55.8513 11.2214 56.0243 11.6794 56.4279 12.0802C56.8315 12.4237 57.2351 12.7099 57.6387 12.9389C58.0999 13.1107 58.4459 13.2824 58.6765 13.4542C58.9071 13.626 59.0801 13.7405 59.0801 13.7977C59.0801 13.855 59.0225 13.9122 58.9071 13.9122C58.6765 13.9122 58.2152 13.7977 57.5234 13.5115C56.8891 13.2252 56.2549 12.7672 55.6783 12.2519C55.1017 11.6794 54.8134 11.0496 54.7558 10.2481C54.7558 10.1908 54.6981 10.0763 54.6405 9.96183C54.5828 9.84733 54.5251 9.73283 54.5251 9.61832C54.4098 8.47328 54.6405 7.44275 55.2747 6.58397C55.9089 5.72519 56.7738 5.03817 57.927 4.46565C59.0801 3.89313 60.2909 3.49237 61.6747 3.14886C63.0585 2.8626 64.4999 2.69084 65.8837 2.57634C66.172 2.57634 66.4603 2.57634 66.7486 2.51909C67.0369 2.51909 67.3252 2.51909 67.6134 2.51909C67.5558 2.29008 67.4981 2.11832 67.3252 1.94657C67.2675 1.83206 67.2098 1.71756 67.2098 1.66031C67.2098 1.4313 67.3252 1.25954 67.6134 1.25954C67.9017 1.25954 68.2477 1.48855 68.536 1.88931C68.6513 2.11832 68.7666 2.29008 68.8243 2.51909C70.6116 2.63359 72.1107 2.91985 73.3216 3.43512C73.5522 3.49237 73.8405 3.72138 74.1864 3.95038C74.5324 4.23664 74.7053 4.46565 74.7053 4.63741C74.7053 4.80916 74.59 4.86641 74.3594 4.86641C74.2441 4.86641 74.0711 4.86641 73.8981 4.86641C73.7252 4.86641 73.4945 4.80916 73.2639 4.69466C72.1107 4.4084 70.727 4.29389 69.0549 4.29389C69.0549 5.61069 68.8819 7.21374 68.4783 9.0458C68.0747 10.8779 67.5558 12.6527 66.9215 14.3702C66.0567 16.6603 65.2495 18.9504 64.4999 21.355C63.7504 23.7595 63.2891 25.9351 63.2315 27.8817C63.2315 27.9962 63.1738 28.1107 63.2315 28.2824C63.2315 28.3969 63.2315 28.5115 63.2315 28.626C63.2891 29.4847 63.4621 30.0573 63.808 30.4008C64.154 30.7443 64.6152 30.916 65.1918 30.916C66.0567 30.8588 67.0945 30.5153 68.2477 29.771C69.4008 29.0267 70.554 28.2252 71.7071 27.3092C73.7252 25.6489 75.4549 23.8168 76.8963 21.9275C78.3378 20.0382 79.6639 17.9771 80.99 15.687C82.1432 13.626 83.2963 11.5649 84.3342 9.50382C85.4297 7.44275 86.6405 5.49618 88.0819 3.60687C88.4279 3.0916 88.9468 2.57634 89.5233 2.00382C90.1576 1.4313 90.8495 0.973284 91.6567 0.572521C92.4639 0.171758 93.2134 -0.05725 93.963 -0.114502C94.1936 -0.114502 94.4819 -0.114502 94.7702 -0.05725C95.0585 1.85588e-06 95.2891 0.114506 95.5198 0.22901C95.7504 0.343513 95.808 0.458017 95.7504 0.572521C95.6927 0.687025 95.6351 0.744277 95.5198 0.744277C95.4044 0.744277 95.3468 0.744277 95.2315 0.744277C95.1161 0.744277 95.0585 0.744277 95.0008 0.744277C94.3089 0.801529 93.5017 1.25954 92.6369 2.23283C91.7143 3.14886 90.7342 4.4084 89.6387 6.01145C88.5432 7.55725 87.3324 9.33206 86.0062 11.2214C84.7378 13.1679 83.354 15.1145 81.9125 17.1183C80.4134 19.2366 78.8567 21.2977 77.2999 23.2443C75.6855 25.2481 74.0711 26.9657 72.399 28.3969C71.1306 29.4847 69.8044 30.4008 68.536 31.0878C67.2098 31.8321 65.9414 32.1756 64.6152 32.2901Z" fill="#181918"/>
<path d="M89.4081 29.084C88.0243 29.1412 86.7559 28.9122 85.718 28.2825C84.6802 27.7099 84.1036 26.7367 84.046 25.3626C83.9883 24.6756 84.1613 23.7596 84.5649 22.729C84.8532 21.9847 85.3721 21.1832 86.1793 20.2099C86.9865 19.2367 87.909 18.2634 89.0045 17.3473C90.1 16.4313 91.1955 15.6298 92.291 15C93.3865 14.3702 94.4244 14.0267 95.4045 13.9695C95.7505 13.9695 96.0388 13.9695 96.327 14.084C96.846 14.2557 97.2496 14.542 97.4802 14.8855C97.7108 15.2863 97.8261 15.687 97.8261 16.1451C97.8261 16.5458 97.8262 16.9466 97.7108 17.2901C97.5955 17.6909 97.4802 17.9771 97.3072 18.2634C96.7883 19.1222 96.0388 19.9237 95.0009 20.6107C93.9631 21.2977 92.9829 21.8702 91.8874 22.271C90.7919 22.6718 89.9847 22.958 89.2928 23.0725H89.1775C88.7739 23.0725 88.5433 22.958 88.5433 22.729C88.5433 22.5573 88.6586 22.5 88.8892 22.5C89.6388 22.3855 90.5613 21.9847 91.6568 21.2977C92.7523 20.6107 93.7325 19.9237 94.5973 19.1794C94.9433 18.8359 95.4045 18.3779 95.8658 17.8054C96.327 17.2328 96.5577 16.6603 96.5577 16.1451C96.5577 15.5725 96.2694 15.3435 95.6928 15.3435C95.4045 15.3435 95.1162 15.458 94.828 15.5725C94.5397 15.687 94.309 15.8015 94.1361 15.8588C93.2712 16.3168 92.291 17.0611 91.2532 18.0344C90.2153 19.0077 89.2928 20.0954 88.428 21.2405C87.6207 22.3855 87.0442 23.5878 86.7559 24.7328C86.6982 24.9618 86.6406 25.2481 86.5829 25.4771C86.5829 25.7061 86.5829 25.9351 86.5829 26.1641C86.6406 26.9084 86.8712 27.4237 87.3901 27.7099C87.909 27.9962 88.4856 28.1107 89.1775 28.1107C90.2153 28.0535 91.2532 27.7672 92.3487 27.3092C93.4442 26.7939 94.4243 26.1641 95.4622 25.4199C96.4424 24.6756 97.3649 23.8741 98.1721 22.958C98.9793 22.0993 99.6712 21.2405 100.248 20.4389C100.363 20.3244 100.421 20.2099 100.536 20.2099C100.651 20.2099 100.767 20.2099 100.767 20.2672C100.882 20.2672 100.94 20.3817 100.94 20.4962C100.94 20.6107 100.94 20.7825 100.882 20.897C100.075 22.1565 99.0946 23.3588 97.8838 24.5611C96.7306 25.7634 95.4045 26.7939 93.9631 27.5954C92.5216 28.5115 91.0225 28.9695 89.4081 29.084Z" fill="#181918"/>
<path d="M98.9218 44.9427C98.5182 44.8855 98.2299 44.771 97.9416 44.7137C97.3074 44.4275 96.9038 44.084 96.6155 43.7405C96.3272 43.3397 96.2119 42.9389 96.1542 42.5382C96.0966 41.8511 96.3272 41.0496 96.7885 40.1908C97.2497 39.3321 97.8263 38.4733 98.5758 37.5572C99.3254 36.584 100.248 35.6107 101.401 34.5802C102.554 33.5496 103.765 32.5763 105.034 31.6603C106.302 30.687 107.397 29.8855 108.378 29.1985C109.358 26.9656 110.223 24.8473 110.972 22.8435C111.722 20.8397 112.241 19.2939 112.529 18.2061C111.895 18.9504 111.261 19.7519 110.569 20.7252C109.877 21.6412 109.358 22.3282 109.012 22.729C108.435 23.3588 107.801 24.1031 107.109 24.8473C106.417 25.5916 105.668 26.2786 104.861 26.7939C104.053 27.3664 103.246 27.6527 102.497 27.6527C101.978 27.6527 101.459 27.5382 100.882 27.3092C100.306 27.0229 99.8443 26.6794 99.4984 26.2214C98.9794 25.6489 98.7488 25.0191 98.6912 24.3321C98.6335 23.4733 98.9218 22.6145 99.4407 21.6985C99.9596 20.7824 100.652 19.8664 101.574 18.9504C102.439 18.0344 103.419 17.2328 104.399 16.4885C105.379 15.7443 106.36 15.1145 107.282 14.5992C108.205 14.084 108.954 13.7405 109.531 13.5115C110.107 13.2824 110.742 13.1679 111.549 13.1107C111.895 13.1107 112.356 13.1107 112.933 13.2252C113.452 13.3397 113.97 13.5115 114.374 13.7405C114.835 13.9695 115.008 14.3702 115.066 14.8282C115.066 15.0573 114.951 15.1718 114.72 15.0573C114.489 14.7137 114.143 14.4847 113.74 14.3702C113.336 14.2557 112.875 14.2557 112.471 14.2557C111.261 14.313 109.934 14.771 108.435 15.687C106.936 16.5458 105.668 17.5763 104.515 18.7214C104.169 19.0649 103.65 19.5802 103.073 20.3817C102.439 21.1832 101.92 22.042 101.459 22.958C100.997 23.874 100.767 24.7328 100.824 25.4771C100.824 25.8779 100.997 26.2214 101.228 26.5076C101.343 26.6794 101.516 26.7366 101.805 26.7366C102.381 26.6794 103.131 26.3931 103.938 25.8206C104.745 25.2481 105.668 24.5611 106.59 23.7023C107.513 22.8435 108.435 21.9275 109.3 21.0115C110.165 20.0382 110.972 19.1794 111.606 18.3779C112.298 17.5763 112.76 16.9466 113.106 16.5458C113.163 16.374 113.279 16.2595 113.394 16.2023C113.567 16.145 113.74 16.0878 113.913 16.0878C114.432 16.0878 114.951 16.145 115.47 16.4313C116.046 16.6603 116.277 16.8893 116.161 17.0611C115.643 18.3779 115.008 19.8664 114.316 21.584C113.624 23.3015 112.875 25.0763 112.068 26.9656C112.471 26.7366 113.106 26.2214 114.028 25.4198C114.951 24.6183 115.931 23.7023 116.969 22.6145C118.064 21.5267 119.044 20.3817 119.967 19.2366C120.313 18.8359 120.601 18.6069 120.774 18.6069C120.947 18.6069 121.005 18.7786 120.947 19.0649C120.889 19.4084 120.659 19.8092 120.255 20.3244C119.794 20.9542 119.16 21.6985 118.295 22.5573C117.488 23.416 116.565 24.2748 115.643 25.1908C114.72 26.1069 113.855 26.9084 113.048 27.5954C112.241 28.2824 111.606 28.7977 111.203 29.084C110.338 31.145 109.473 33.1489 108.666 34.9809C107.859 36.813 107.109 38.3588 106.417 39.5038C105.956 40.3053 105.379 41.1069 104.688 41.9656C103.996 42.8244 103.246 43.5114 102.439 44.084C101.632 44.6565 100.767 45 99.8443 45C99.729 45 99.6137 45 99.4984 45C99.2101 45 99.0948 45 98.9218 44.9427ZM98.4029 43.7977C98.5758 43.9122 98.8641 43.9122 99.2101 43.7405C99.556 43.626 100.017 43.2824 100.536 42.8244C101.689 41.7939 102.67 40.6489 103.477 39.3321C104.284 38.0153 105.033 36.6412 105.668 35.1527C106.302 33.7214 106.936 32.3473 107.513 30.9733C106.36 31.9466 105.033 33.0343 103.534 34.3511C102.093 35.6679 100.767 36.9275 99.556 38.187C98.9794 38.8168 98.4605 39.5611 98.1146 40.3053C97.711 41.1069 97.538 41.7939 97.5957 42.4237C97.6533 43.1107 97.9416 43.5687 98.4029 43.7977Z" fill="#181918"/>
<path d="M132.478 26.7367C131.959 26.7367 131.441 26.6794 130.979 26.4504C130.518 26.2214 130.172 25.7634 129.884 25.1336C129.768 24.8473 129.711 24.5038 129.711 23.9886C129.653 23.3015 129.711 22.5573 129.884 21.6985C130.057 20.8397 130.172 20.1527 130.403 19.5229C130.23 19.5802 129.999 19.8664 129.595 20.3817C129.192 20.897 128.731 21.4695 128.154 22.1565C127.577 22.8435 126.943 23.5305 126.251 24.2748C125.559 24.9618 124.81 25.5344 124.06 26.0496C123.311 26.5076 122.561 26.7939 121.812 26.7939C121.293 26.7939 120.774 26.6794 120.197 26.4504C119.621 26.1641 119.159 25.8206 118.814 25.3626C118.295 24.7901 118.064 24.1603 118.006 23.4733C117.949 22.6145 118.237 21.7557 118.756 20.8397C119.275 19.9237 119.967 19.0076 120.889 18.0916C121.754 17.1756 122.734 16.3741 123.714 15.6298C124.695 14.8855 125.675 14.2557 126.597 13.7405C127.52 13.2252 128.269 12.8817 128.846 12.6527C129.48 12.4237 130.172 12.3092 130.922 12.2519C131.383 12.2519 131.786 12.2519 132.305 12.3664C132.767 12.4809 133.17 12.5954 133.516 12.8244C133.747 12.9389 133.977 13.1107 134.15 13.2825C134.323 13.5115 134.381 13.7405 134.439 13.9695C134.439 14.1985 134.323 14.313 134.15 14.1985C133.862 13.855 133.516 13.626 133.113 13.5115C132.709 13.397 132.248 13.397 131.844 13.397C130.576 13.4542 129.25 13.9122 127.808 14.8283C126.367 15.687 125.041 16.7176 123.945 17.8626C123.599 18.2061 123.08 18.7214 122.504 19.5229C121.927 20.3244 121.35 21.1832 120.889 22.0992C120.428 23.0153 120.197 23.8741 120.197 24.6183C120.197 25.0191 120.37 25.3626 120.601 25.6489C120.716 25.8779 120.947 25.9351 121.235 25.9351C121.696 25.9351 122.215 25.6489 122.965 25.1336C123.657 24.6183 124.406 24.0458 125.156 23.3588C125.905 22.6718 126.597 21.9847 127.174 21.355C127.808 20.7252 128.212 20.2099 128.5 19.9237C128.673 19.7519 128.961 19.4084 129.365 18.9504C129.768 18.4351 130.23 17.9199 130.749 17.3473C131.268 16.7748 131.729 16.2596 132.075 15.8588C132.478 15.458 132.767 15.229 132.882 15.229C133.055 15.229 133.286 15.229 133.632 15.2863C133.977 15.3435 134.323 15.458 134.554 15.5725C134.785 15.7443 134.842 15.916 134.727 16.1451C133.977 17.3473 133.401 18.6069 132.997 19.9237C132.594 21.2405 132.363 22.271 132.305 23.0153C132.305 23.1298 132.248 23.2443 132.248 23.3588C132.248 23.4733 132.248 23.5878 132.248 23.7023C132.305 24.9618 132.767 25.5344 133.632 25.4771C134.093 25.4771 134.727 25.1336 135.477 24.5611C136.226 23.9886 136.976 23.2443 137.783 22.4428C138.532 21.6412 139.282 20.8397 139.916 20.0954C140.55 19.3512 140.954 18.7786 141.185 18.3779C141.3 18.2634 141.358 18.2061 141.473 18.2061C141.588 18.2061 141.704 18.2634 141.819 18.3779C141.934 18.4924 141.934 18.6069 141.819 18.7786C141.531 19.3512 141.012 20.0382 140.435 20.8397C139.801 21.6412 139.109 22.4428 138.359 23.2443C137.61 24.0458 136.803 24.7328 136.053 25.3626C135.65 25.7061 135.188 25.9924 134.554 26.2214C133.747 26.5649 133.113 26.6794 132.478 26.7367Z" fill="#181918"/>
<path d="M138.648 26.5649C138.417 26.5649 138.36 26.4504 138.417 26.2214C138.475 26.0496 138.648 25.5916 138.879 24.9046C139.109 24.2176 139.34 23.416 139.628 22.5C139.916 21.584 140.205 20.5534 140.493 19.5802C140.781 18.5496 141.07 17.6336 141.3 16.7748C141.531 15.916 141.761 15.229 141.934 14.7137C141.992 14.542 142.05 14.2557 142.107 13.9122C142.165 13.5687 142.28 13.2252 142.453 12.9389C142.626 12.6527 142.972 12.4809 143.491 12.4237C144.414 12.3664 144.875 12.5954 144.933 12.9962C144.933 13.1679 144.875 13.397 144.76 13.7977C144.414 14.6565 144.068 15.6298 143.664 16.7176C143.261 17.8054 142.915 18.8359 142.626 19.8092C142.338 20.7824 142.107 21.5267 141.934 22.0992C142.223 21.6412 142.684 21.0115 143.376 20.1527C144.01 19.2939 144.76 18.4351 145.624 17.4618C146.432 16.4886 147.297 15.5725 148.219 14.6565C149.142 13.7405 150.006 12.9962 150.756 12.4237C151.563 11.8512 152.255 11.5649 152.832 11.5076C153.581 11.4504 153.985 11.8512 153.985 12.6527C153.985 12.9389 153.927 13.3397 153.812 13.9122C153.581 14.7137 153.235 15.458 152.832 16.2023C152.428 16.9466 152.082 17.7481 151.794 18.5496C151.275 20.0382 150.987 21.2405 150.929 22.0992C150.929 22.2137 150.871 22.3283 150.871 22.4428C150.871 22.5573 150.871 22.6718 150.871 22.7863C150.929 24.0458 151.39 24.6183 152.197 24.5611C152.659 24.5611 153.293 24.2176 154.042 23.645C154.792 23.0725 155.542 22.3282 156.349 21.5267C157.156 20.7252 157.848 19.9237 158.482 19.1794C159.116 18.4351 159.52 17.8626 159.751 17.4618C159.866 17.3473 159.924 17.2901 160.039 17.2901C160.154 17.2901 160.27 17.3473 160.327 17.4046C160.385 17.5191 160.442 17.6336 160.385 17.7481C160.154 18.2634 159.693 18.9504 159.059 19.8092C158.424 20.6107 157.733 21.4695 156.983 22.271C156.233 23.0725 155.426 23.8168 154.677 24.3893C154.215 24.7328 153.639 25.0191 153.005 25.3054C152.313 25.5916 151.679 25.7061 150.987 25.7061C150.122 25.6489 149.488 25.3626 149.084 24.9046C148.68 24.3893 148.45 23.8168 148.45 23.0725C148.392 22.2137 148.507 21.355 148.796 20.3817C149.084 19.4084 149.372 18.4924 149.776 17.6336C150.122 16.7748 150.41 16.145 150.641 15.687C150.871 15.1718 150.987 14.771 150.929 14.4847C150.929 14.2557 150.814 14.1412 150.583 14.1412C150.352 14.1412 150.064 14.313 149.603 14.5992C149.199 14.8855 148.623 15.4008 147.873 16.145C147.239 16.7748 146.547 17.5763 145.797 18.5496C145.048 19.5229 144.356 20.5534 143.664 21.584C142.972 22.6145 142.396 23.4733 141.877 24.2176C141.358 24.9618 141.012 25.4199 140.781 25.5344C140.608 25.6489 140.262 25.8206 139.743 26.0496C139.34 26.4504 138.936 26.5649 138.648 26.5649Z" fill="#181918"/>
</g>
<defs>
<clipPath id="clip0_766_774">
<rect width="160" height="45" fill="white" transform="translate(0.5)"/>
</clipPath>
</defs>
</svg>
