<svg width="168" height="53" viewBox="0 0 168 53" fill="none" xmlns="http://www.w3.org/2000/svg">
<g clip-path="url(#clip0_12_1980)" filter="url(#filter0_d_12_1980)">
<path d="M32.8288 19.4084C31.3297 19.2939 29.7153 19.2939 27.9279 19.3512C26.0252 19.4657 24.2378 19.5802 22.6234 19.7519C21.009 19.9237 19.6828 20.2099 18.7027 20.6107C17.7225 21.0115 17.2612 21.6412 17.3189 22.5C17.3189 22.729 17.3765 22.8435 17.4342 22.9008C17.4918 22.958 17.6648 22.958 17.8378 22.958C19.3946 22.5573 20.9513 22.0992 22.5657 21.6985C24.1801 21.2405 25.7946 20.9542 27.409 20.7252C27.2937 20.9542 27.236 21.2405 27.1783 21.584C27.063 23.187 26.5441 24.6756 25.6792 26.0496C24.7567 27.4237 23.6612 28.626 22.2774 29.5992C20.8937 30.6298 19.4522 31.4313 17.8378 32.0038C16.281 32.5763 14.7243 32.9199 13.1675 32.9771C10.6882 33.0916 8.8432 32.6336 7.7477 31.4886C6.65221 30.3435 6.07563 28.9122 5.96032 27.1947C5.90266 25.5344 6.13329 23.8168 6.70987 22.042C7.28644 20.2672 8.15131 18.4924 9.30446 16.7748C10.4 15.0573 11.7261 13.5687 13.1675 12.1947C14.609 10.8206 16.1657 9.73283 17.8378 8.87405C19.5099 8.01527 21.1243 7.55726 22.7964 7.50001C23.7189 7.44275 24.5837 7.55726 25.3909 7.90077C26.1982 8.18703 26.7747 8.75955 27.1207 9.56107C27.236 9.96184 27.409 10.1336 27.6396 10.1336C27.7549 10.1336 27.8702 10.0191 28.0432 9.79008C28.1585 9.56107 28.2162 9.33207 28.2162 9.04581C28.1585 8.30153 27.8126 7.67176 27.1783 7.271C26.5441 6.87023 25.7369 6.58398 24.7567 6.41222C23.7765 6.24046 22.7964 6.18321 21.8162 6.24046C19.9711 6.35497 18.1837 6.75573 16.3964 7.55726C14.609 8.35878 12.9946 9.38932 11.4378 10.7061C9.88104 12.0229 8.55491 13.5115 7.40176 15.1718C6.24861 16.8321 5.32608 18.6069 4.74951 20.4389C4.17293 22.271 3.88464 24.1603 3.9423 25.9924C4.05761 27.7672 4.51888 29.2557 5.38374 30.458C6.30626 31.7176 7.45942 32.6336 8.8432 33.2061C10.2846 33.7786 11.8991 34.0649 13.6864 33.9504C15.0702 33.8931 16.454 33.6641 17.8378 33.2634C19.2216 32.8626 20.49 32.3473 21.5855 31.7748C22.5081 31.3168 23.4306 30.687 24.3531 29.9428C25.2756 29.1985 26.1405 28.3397 26.9477 27.3092C27.7549 26.3359 28.3315 25.3053 28.7928 24.2176C29.254 23.1298 29.4846 21.9847 29.427 20.8397C29.427 20.7824 29.427 20.7252 29.427 20.6107C29.427 20.5534 29.3693 20.4389 29.3117 20.3817C29.8882 20.3244 30.5225 20.2672 31.1567 20.2672C31.7909 20.2672 32.3675 20.2099 32.7711 20.0954C33.2324 20.0382 33.463 19.8664 33.4054 19.6947C33.463 19.5802 33.2324 19.4084 32.8288 19.4084Z" fill="#CAFDC8"/>
<path d="M37.0379 31.6031C36.173 31.6603 35.3658 31.4885 34.7316 31.0878C33.6361 30.5153 33.0019 29.3702 32.9442 27.6527C32.8865 26.9656 33.0019 26.1069 33.1748 25.1908C33.3478 24.3893 33.6937 23.5305 34.2127 22.6145C34.7316 21.6985 35.3658 20.7824 36.0577 19.9237C36.8073 19.0649 37.5568 18.3206 38.4793 17.7481C39.3442 17.1756 40.2667 16.8893 41.1316 16.8321C41.4775 16.8321 41.8235 16.8321 42.1118 16.9466C42.5154 17.0611 42.8037 17.2328 43.0919 17.5763C43.3802 17.8626 43.5532 18.3206 43.5532 18.7786C43.5532 19.2939 43.4379 19.5802 43.2073 19.6947C42.919 19.7519 42.8037 19.6947 42.8037 19.5229C42.8037 19.4656 42.8037 19.4084 42.8037 19.3511C42.8037 19.2939 42.8037 19.2366 42.8037 19.2366C42.8037 19.0076 42.6883 18.7786 42.573 18.5496C42.4001 18.3779 42.1694 18.2634 41.7658 18.2634C41.2469 18.2634 40.6703 18.6069 39.9784 19.1221C39.2865 19.6947 38.537 20.4389 37.8451 21.355C37.1532 22.271 36.519 23.3015 36.0001 24.3321C35.4811 25.4198 35.1352 26.5076 35.0199 27.5382C35.0199 27.7099 34.9622 27.8244 34.9622 27.9962C34.9622 28.1107 34.9622 28.2824 34.9622 28.4542C35.0199 29.1412 35.1928 29.771 35.5388 30.229C35.8847 30.687 36.4037 30.916 37.1532 30.8588C38.0181 30.8015 38.8253 30.458 39.6325 29.7137C40.382 29.0267 41.0739 28.1679 41.7082 27.1947C42.2847 26.2214 42.746 25.4198 43.0343 24.6756C43.2649 24.1031 43.3802 23.645 43.4955 23.187C43.5532 22.7863 43.6109 22.4427 43.6109 22.1565C43.6109 21.9275 43.5532 21.6985 43.4955 21.5267C43.4379 21.355 43.3802 21.1832 43.3226 21.0687C43.2649 20.8969 43.2073 20.7252 43.2073 20.6679C43.2073 20.4389 43.2649 20.2099 43.4955 20.0382C43.6685 19.8664 43.8991 19.8092 44.1298 19.7519C44.3028 19.7519 44.5334 19.8092 44.764 19.9237C44.9946 19.9809 45.3406 19.9809 45.8019 20.0382C46.2631 20.0382 46.7244 20.0382 47.1856 20.0382C47.7046 20.0382 48.2235 19.9809 48.8001 19.9237C49.319 19.8664 49.8379 19.8092 50.2415 19.6947C50.2991 19.6374 50.4145 19.6374 50.5298 19.6374C50.7604 19.6374 50.8757 19.6947 50.8757 19.8092C50.8757 19.9237 50.7604 20.0382 50.5874 20.1527C49.5496 20.7252 48.5694 21.0115 47.7046 21.0687C46.8397 21.126 46.0901 21.1832 45.5136 21.2405C45.6289 21.9847 45.4559 22.8435 45.11 23.7595C44.764 24.6756 44.3604 25.4771 43.9568 26.1641C43.4379 26.9657 42.919 27.7672 42.2271 28.626C41.5928 29.4847 40.8433 30.1718 40.0361 30.7443C39.0559 31.2023 38.0757 31.5458 37.0379 31.6031Z" fill="#CAFDC8"/>
<path d="M68.1152 32.2901C66.4432 32.3473 65.29 32.1183 64.5981 31.4886C63.9062 30.8588 63.5603 30.0573 63.5026 29.0267C63.445 28.0534 63.6179 26.9657 64.0215 25.7634C64.5981 23.9313 65.2324 21.9847 65.9819 19.9809C66.7315 17.9771 67.481 16.0305 68.1729 14.084C68.7495 12.4237 69.3837 10.7634 69.9603 9.0458C70.5369 7.32825 70.9405 5.8397 71.1711 4.58015C69.7873 4.63741 68.4035 4.80916 67.0197 5.09542C65.636 5.38168 64.3098 5.78244 63.099 6.24046C61.8882 6.75573 60.9657 7.32825 60.2738 8.07252C59.5819 8.8168 59.236 9.61832 59.2936 10.5916C59.3513 11.2214 59.5243 11.6794 59.9279 12.0802C60.3315 12.4237 60.7351 12.7099 61.1387 12.9389C61.5999 13.1107 61.9459 13.2824 62.1765 13.4542C62.4071 13.626 62.5801 13.7405 62.5801 13.7977C62.5801 13.855 62.5225 13.9122 62.4071 13.9122C62.1765 13.9122 61.7152 13.7977 61.0234 13.5115C60.3891 13.2252 59.7549 12.7672 59.1783 12.2519C58.6017 11.6794 58.3134 11.0496 58.2558 10.2481C58.2558 10.1908 58.1981 10.0763 58.1405 9.96183C58.0828 9.84733 58.0251 9.73283 58.0251 9.61832C57.9098 8.47328 58.1405 7.44275 58.7747 6.58397C59.4089 5.72519 60.2738 5.03817 61.427 4.46565C62.5801 3.89313 63.7909 3.49237 65.1747 3.14886C66.5585 2.8626 67.9999 2.69084 69.3837 2.57634C69.672 2.57634 69.9603 2.57634 70.2486 2.51909C70.5369 2.51909 70.8252 2.51909 71.1134 2.51909C71.0558 2.29008 70.9981 2.11832 70.8252 1.94657C70.7675 1.83206 70.7098 1.71756 70.7098 1.66031C70.7098 1.4313 70.8252 1.25954 71.1134 1.25954C71.4017 1.25954 71.7477 1.48855 72.036 1.88931C72.1513 2.11832 72.2666 2.29008 72.3243 2.51909C74.1116 2.63359 75.6107 2.91985 76.8216 3.43512C77.0522 3.49237 77.3405 3.72138 77.6864 3.95038C78.0324 4.23664 78.2053 4.46565 78.2053 4.63741C78.2053 4.80916 78.09 4.86641 77.8594 4.86641C77.7441 4.86641 77.5711 4.86641 77.3981 4.86641C77.2252 4.86641 76.9945 4.80916 76.7639 4.69466C75.6107 4.4084 74.227 4.29389 72.5549 4.29389C72.5549 5.61069 72.3819 7.21374 71.9783 9.0458C71.5747 10.8779 71.0558 12.6527 70.4215 14.3702C69.5567 16.6603 68.7495 18.9504 67.9999 21.355C67.2504 23.7595 66.7891 25.9351 66.7315 27.8817C66.7315 27.9962 66.6738 28.1107 66.7315 28.2824C66.7315 28.3969 66.7315 28.5114 66.7315 28.626C66.7891 29.4847 66.9621 30.0573 67.308 30.4008C67.654 30.7443 68.1152 30.916 68.6918 30.916C69.5567 30.8588 70.5945 30.5153 71.7477 29.771C72.9008 29.0267 74.054 28.2252 75.2071 27.3092C77.2252 25.6489 78.9549 23.8168 80.3963 21.9275C81.8378 20.0382 83.1639 17.9771 84.49 15.687C85.6432 13.626 86.7963 11.5649 87.8342 9.50382C88.9297 7.44275 90.1405 5.49618 91.5819 3.60687C91.9279 3.0916 92.4468 2.57634 93.0233 2.00382C93.6576 1.4313 94.3495 0.973284 95.1567 0.572521C95.9639 0.171758 96.7134 -0.05725 97.463 -0.114502C97.6936 -0.114502 97.9819 -0.114502 98.2702 -0.05725C98.5585 1.85519e-06 98.7891 0.114506 99.0198 0.22901C99.2504 0.343513 99.308 0.458017 99.2504 0.572521C99.1927 0.687025 99.1351 0.744277 99.0198 0.744277C98.9044 0.744277 98.8468 0.744277 98.7315 0.744277C98.6161 0.744277 98.5585 0.744277 98.5008 0.744277C97.8089 0.801529 97.0017 1.25954 96.1369 2.23283C95.2143 3.14886 94.2342 4.4084 93.1387 6.01145C92.0432 7.55725 90.8324 9.33206 89.5062 11.2214C88.2378 13.1679 86.854 15.1145 85.4125 17.1183C83.9134 19.2366 82.3567 21.2977 80.7999 23.2443C79.1855 25.2481 77.5711 26.9657 75.899 28.3969C74.6306 29.4847 73.3044 30.4008 72.036 31.0878C70.7098 31.8321 69.4414 32.1756 68.1152 32.2901Z" fill="white"/>
<path d="M92.9081 29.084C91.5243 29.1412 90.2559 28.9122 89.218 28.2824C88.1802 27.7099 87.6036 26.7366 87.546 25.3626C87.4883 24.6756 87.6613 23.7595 88.0649 22.729C88.3532 21.9847 88.8721 21.1832 89.6793 20.2099C90.4865 19.2366 91.409 18.2634 92.5045 17.3473C93.6 16.4313 94.6955 15.6298 95.791 15C96.8865 14.3702 97.9243 14.0267 98.9045 13.9695C99.2505 13.9695 99.5388 13.9695 99.827 14.084C100.346 14.2557 100.75 14.542 100.98 14.8855C101.211 15.2863 101.326 15.687 101.326 16.145C101.326 16.5458 101.326 16.9466 101.211 17.2901C101.096 17.6908 100.98 17.9771 100.807 18.2634C100.288 19.1221 99.5388 19.9237 98.5009 20.6107C97.4631 21.2977 96.4829 21.8702 95.3874 22.271C94.2919 22.6718 93.4847 22.958 92.7928 23.0725H92.6775C92.2739 23.0725 92.0433 22.958 92.0433 22.729C92.0433 22.5573 92.1586 22.5 92.3892 22.5C93.1388 22.3855 94.0613 21.9847 95.1568 21.2977C96.2523 20.6107 97.2325 19.9237 98.0973 19.1794C98.4433 18.8359 98.9045 18.3779 99.3658 17.8053C99.827 17.2328 100.058 16.6603 100.058 16.145C100.058 15.5725 99.7694 15.3435 99.1928 15.3435C98.9045 15.3435 98.6162 15.458 98.328 15.5725C98.0397 15.687 97.809 15.8015 97.6361 15.8588C96.7712 16.3168 95.791 17.0611 94.7532 18.0344C93.7153 19.0076 92.7928 20.0954 91.928 21.2405C91.1207 22.3855 90.5442 23.5878 90.2559 24.7328C90.1982 24.9618 90.1406 25.2481 90.0829 25.4771C90.0829 25.7061 90.0829 25.9351 90.0829 26.1641C90.1406 26.9084 90.3712 27.4237 90.8901 27.7099C91.409 27.9962 91.9856 28.1107 92.6775 28.1107C93.7153 28.0534 94.7532 27.7672 95.8487 27.3092C96.9442 26.7939 97.9243 26.1641 98.9622 25.4198C99.9424 24.6756 100.865 23.874 101.672 22.958C102.479 22.0992 103.171 21.2405 103.748 20.4389C103.863 20.3244 103.921 20.2099 104.036 20.2099C104.151 20.2099 104.267 20.2099 104.267 20.2672C104.382 20.2672 104.44 20.3817 104.44 20.4962C104.44 20.6107 104.44 20.7824 104.382 20.8969C103.575 22.1565 102.595 23.3588 101.384 24.5611C100.231 25.7634 98.9045 26.7939 97.4631 27.5954C96.0216 28.5115 94.5225 28.9695 92.9081 29.084Z" fill="white"/>
<path d="M102.422 44.9427C102.018 44.8855 101.73 44.771 101.442 44.7137C100.807 44.4275 100.404 44.084 100.115 43.7405C99.8272 43.3397 99.7119 42.9389 99.6542 42.5382C99.5966 41.8511 99.8272 41.0496 100.288 40.1908C100.75 39.3321 101.326 38.4733 102.076 37.5572C102.825 36.584 103.748 35.6107 104.901 34.5802C106.054 33.5496 107.265 32.5763 108.534 31.6603C109.802 30.687 110.897 29.8855 111.878 29.1985C112.858 26.9656 113.723 24.8473 114.472 22.8435C115.222 20.8397 115.741 19.2939 116.029 18.2061C115.395 18.9504 114.761 19.7519 114.069 20.7252C113.377 21.6412 112.858 22.3282 112.512 22.729C111.935 23.3588 111.301 24.1031 110.609 24.8473C109.917 25.5916 109.168 26.2786 108.361 26.7939C107.553 27.3664 106.746 27.6527 105.997 27.6527C105.478 27.6527 104.959 27.5382 104.382 27.3092C103.806 27.0229 103.344 26.6794 102.998 26.2214C102.479 25.6489 102.249 25.0191 102.191 24.3321C102.133 23.4733 102.422 22.6145 102.941 21.6985C103.46 20.7824 104.152 19.8664 105.074 18.9504C105.939 18.0344 106.919 17.2328 107.899 16.4885C108.879 15.7443 109.86 15.1145 110.782 14.5992C111.705 14.084 112.454 13.7405 113.031 13.5115C113.607 13.2824 114.242 13.1679 115.049 13.1107C115.395 13.1107 115.856 13.1107 116.433 13.2252C116.952 13.3397 117.47 13.5115 117.874 13.7405C118.335 13.9695 118.508 14.3702 118.566 14.8282C118.566 15.0573 118.451 15.1718 118.22 15.0573C117.989 14.7137 117.643 14.4847 117.24 14.3702C116.836 14.2557 116.375 14.2557 115.971 14.2557C114.761 14.313 113.434 14.771 111.935 15.687C110.436 16.5458 109.168 17.5763 108.015 18.7214C107.669 19.0649 107.15 19.5802 106.573 20.3817C105.939 21.1832 105.42 22.042 104.959 22.958C104.497 23.874 104.267 24.7328 104.324 25.4771C104.324 25.8779 104.497 26.2214 104.728 26.5076C104.843 26.6794 105.016 26.7366 105.305 26.7366C105.881 26.6794 106.631 26.3931 107.438 25.8206C108.245 25.2481 109.168 24.5611 110.09 23.7023C111.013 22.8435 111.935 21.9275 112.8 21.0115C113.665 20.0382 114.472 19.1794 115.106 18.3779C115.798 17.5763 116.26 16.9466 116.606 16.5458C116.663 16.374 116.779 16.2595 116.894 16.2023C117.067 16.145 117.24 16.0878 117.413 16.0878C117.932 16.0878 118.451 16.145 118.97 16.4313C119.546 16.6603 119.777 16.8893 119.661 17.0611C119.143 18.3779 118.508 19.8664 117.816 21.584C117.124 23.3015 116.375 25.0763 115.568 26.9656C115.971 26.7366 116.606 26.2214 117.528 25.4198C118.451 24.6183 119.431 23.7023 120.469 22.6145C121.564 21.5267 122.544 20.3817 123.467 19.2366C123.813 18.8359 124.101 18.6069 124.274 18.6069C124.447 18.6069 124.505 18.7786 124.447 19.0649C124.389 19.4084 124.159 19.8092 123.755 20.3244C123.294 20.9542 122.66 21.6985 121.795 22.5573C120.988 23.416 120.065 24.2748 119.143 25.1908C118.22 26.1069 117.355 26.9084 116.548 27.5954C115.741 28.2824 115.106 28.7977 114.703 29.084C113.838 31.145 112.973 33.1489 112.166 34.9809C111.359 36.813 110.609 38.3588 109.917 39.5038C109.456 40.3053 108.879 41.1069 108.188 41.9656C107.496 42.8244 106.746 43.5114 105.939 44.084C105.132 44.6565 104.267 45 103.344 45C103.229 45 103.114 45 102.998 45C102.71 45 102.595 45 102.422 44.9427ZM101.903 43.7977C102.076 43.9122 102.364 43.9122 102.71 43.7405C103.056 43.626 103.517 43.2824 104.036 42.8244C105.189 41.7939 106.17 40.6489 106.977 39.3321C107.784 38.0153 108.533 36.6412 109.168 35.1527C109.802 33.7214 110.436 32.3473 111.013 30.9733C109.86 31.9466 108.533 33.0343 107.034 34.3511C105.593 35.6679 104.267 36.9275 103.056 38.187C102.479 38.8168 101.961 39.5611 101.615 40.3053C101.211 41.1069 101.038 41.7939 101.096 42.4237C101.153 43.1107 101.442 43.5687 101.903 43.7977Z" fill="white"/>
<path d="M135.978 26.7366C135.459 26.7366 134.941 26.6794 134.479 26.4504C134.018 26.2214 133.672 25.7634 133.384 25.1336C133.268 24.8473 133.211 24.5038 133.211 23.9885C133.153 23.3015 133.211 22.5573 133.384 21.6985C133.557 20.8397 133.672 20.1527 133.903 19.5229C133.73 19.5802 133.499 19.8664 133.095 20.3817C132.692 20.8969 132.231 21.4695 131.654 22.1565C131.077 22.8435 130.443 23.5305 129.751 24.2748C129.059 24.9618 128.31 25.5343 127.56 26.0496C126.811 26.5076 126.061 26.7939 125.312 26.7939C124.793 26.7939 124.274 26.6794 123.697 26.4504C123.121 26.1641 122.659 25.8206 122.314 25.3626C121.795 24.7901 121.564 24.1603 121.506 23.4733C121.449 22.6145 121.737 21.7557 122.256 20.8397C122.775 19.9237 123.467 19.0076 124.389 18.0916C125.254 17.1756 126.234 16.374 127.214 15.6298C128.195 14.8855 129.175 14.2557 130.097 13.7405C131.02 13.2252 131.769 12.8817 132.346 12.6527C132.98 12.4237 133.672 12.3092 134.422 12.2519C134.883 12.2519 135.286 12.2519 135.805 12.3664C136.267 12.4809 136.67 12.5954 137.016 12.8244C137.247 12.9389 137.477 13.1107 137.65 13.2824C137.823 13.5114 137.881 13.7405 137.939 13.9695C137.939 14.1985 137.823 14.313 137.65 14.1985C137.362 13.855 137.016 13.626 136.613 13.5114C136.209 13.3969 135.748 13.3969 135.344 13.3969C134.076 13.4542 132.75 13.9122 131.308 14.8282C129.867 15.687 128.541 16.7176 127.445 17.8626C127.099 18.2061 126.58 18.7214 126.004 19.5229C125.427 20.3244 124.85 21.1832 124.389 22.0992C123.928 23.0153 123.697 23.874 123.697 24.6183C123.697 25.0191 123.87 25.3626 124.101 25.6489C124.216 25.8779 124.447 25.9351 124.735 25.9351C125.196 25.9351 125.715 25.6489 126.465 25.1336C127.157 24.6183 127.906 24.0458 128.656 23.3588C129.405 22.6718 130.097 21.9847 130.674 21.355C131.308 20.7252 131.712 20.2099 132 19.9237C132.173 19.7519 132.461 19.4084 132.865 18.9504C133.268 18.4351 133.73 17.9198 134.249 17.3473C134.768 16.7748 135.229 16.2595 135.575 15.8588C135.978 15.458 136.267 15.229 136.382 15.229C136.555 15.229 136.786 15.229 137.132 15.2863C137.477 15.3435 137.823 15.458 138.054 15.5725C138.285 15.7443 138.342 15.916 138.227 16.145C137.477 17.3473 136.901 18.6069 136.497 19.9237C136.094 21.2405 135.863 22.271 135.805 23.0153C135.805 23.1298 135.748 23.2443 135.748 23.3588C135.748 23.4733 135.748 23.5878 135.748 23.7023C135.805 24.9618 136.267 25.5343 137.132 25.4771C137.593 25.4771 138.227 25.1336 138.977 24.5611C139.726 23.9885 140.476 23.2443 141.283 22.4427C142.032 21.6412 142.782 20.8397 143.416 20.0954C144.05 19.3511 144.454 18.7786 144.685 18.3779C144.8 18.2634 144.858 18.2061 144.973 18.2061C145.088 18.2061 145.204 18.2634 145.319 18.3779C145.434 18.4924 145.434 18.6069 145.319 18.7786C145.031 19.3511 144.512 20.0382 143.935 20.8397C143.301 21.6412 142.609 22.4427 141.859 23.2443C141.11 24.0458 140.303 24.7328 139.553 25.3626C139.15 25.7061 138.688 25.9924 138.054 26.2214C137.247 26.5649 136.613 26.6794 135.978 26.7366Z" fill="white"/>
<path d="M142.148 26.5649C141.917 26.5649 141.86 26.4504 141.917 26.2214C141.975 26.0496 142.148 25.5916 142.379 24.9046C142.609 24.2176 142.84 23.416 143.128 22.5C143.416 21.584 143.705 20.5534 143.993 19.5802C144.281 18.5496 144.57 17.6336 144.8 16.7748C145.031 15.916 145.261 15.229 145.434 14.7137C145.492 14.542 145.55 14.2557 145.607 13.9122C145.665 13.5687 145.78 13.2252 145.953 12.9389C146.126 12.6527 146.472 12.4809 146.991 12.4237C147.914 12.3664 148.375 12.5954 148.433 12.9962C148.433 13.1679 148.375 13.397 148.26 13.7977C147.914 14.6565 147.568 15.6298 147.164 16.7176C146.761 17.8054 146.415 18.8359 146.126 19.8092C145.838 20.7824 145.607 21.5267 145.434 22.0992C145.723 21.6412 146.184 21.0115 146.876 20.1527C147.51 19.2939 148.26 18.4351 149.124 17.4618C149.932 16.4886 150.797 15.5725 151.719 14.6565C152.642 13.7405 153.506 12.9962 154.256 12.4237C155.063 11.8512 155.755 11.5649 156.332 11.5076C157.081 11.4504 157.485 11.8512 157.485 12.6527C157.485 12.9389 157.427 13.3397 157.312 13.9122C157.081 14.7137 156.735 15.458 156.332 16.2023C155.928 16.9466 155.582 17.7481 155.294 18.5496C154.775 20.0382 154.487 21.2405 154.429 22.0992C154.429 22.2137 154.371 22.3283 154.371 22.4428C154.371 22.5573 154.371 22.6718 154.371 22.7863C154.429 24.0458 154.89 24.6183 155.697 24.5611C156.159 24.5611 156.793 24.2176 157.542 23.645C158.292 23.0725 159.042 22.3282 159.849 21.5267C160.656 20.7252 161.348 19.9237 161.982 19.1794C162.616 18.4351 163.02 17.8626 163.251 17.4618C163.366 17.3473 163.424 17.2901 163.539 17.2901C163.654 17.2901 163.77 17.3473 163.827 17.4046C163.885 17.5191 163.942 17.6336 163.885 17.7481C163.654 18.2634 163.193 18.9504 162.559 19.8092C161.924 20.6107 161.233 21.4695 160.483 22.271C159.733 23.0725 158.926 23.8168 158.177 24.3893C157.715 24.7328 157.139 25.0191 156.505 25.3054C155.813 25.5916 155.179 25.7061 154.487 25.7061C153.622 25.6489 152.988 25.3626 152.584 24.9046C152.18 24.3893 151.95 23.8168 151.95 23.0725C151.892 22.2137 152.007 21.355 152.296 20.3817C152.584 19.4084 152.872 18.4924 153.276 17.6336C153.622 16.7748 153.91 16.145 154.141 15.687C154.371 15.1718 154.487 14.771 154.429 14.4847C154.429 14.2557 154.314 14.1412 154.083 14.1412C153.852 14.1412 153.564 14.313 153.103 14.5992C152.699 14.8855 152.123 15.4008 151.373 16.145C150.739 16.7748 150.047 17.5763 149.297 18.5496C148.548 19.5229 147.856 20.5534 147.164 21.584C146.472 22.6145 145.896 23.4733 145.377 24.2176C144.858 24.9618 144.512 25.4199 144.281 25.5344C144.108 25.6489 143.762 25.8206 143.243 26.0496C142.84 26.4504 142.436 26.5649 142.148 26.5649Z" fill="white"/>
</g>
<defs>
<filter id="filter0_d_12_1980" x="0" y="0" width="168" height="53" filterUnits="userSpaceOnUse" color-interpolation-filters="sRGB">
<feFlood flood-opacity="0" result="BackgroundImageFix"/>
<feColorMatrix in="SourceAlpha" type="matrix" values="0 0 0 0 0 0 0 0 0 0 0 0 0 0 0 0 0 0 127 0" result="hardAlpha"/>
<feOffset dy="4"/>
<feGaussianBlur stdDeviation="2"/>
<feComposite in2="hardAlpha" operator="out"/>
<feColorMatrix type="matrix" values="0 0 0 0 0 0 0 0 0 0 0 0 0 0 0 0 0 0 0.25 0"/>
<feBlend mode="normal" in2="BackgroundImageFix" result="effect1_dropShadow_12_1980"/>
<feBlend mode="normal" in="SourceGraphic" in2="effect1_dropShadow_12_1980" result="shape"/>
</filter>
<clipPath id="clip0_12_1980">
<rect width="160" height="45" fill="white" transform="translate(4)"/>
</clipPath>
</defs>
</svg>
