<svg width="168" height="53" viewBox="0 0 168 53" fill="none" xmlns="http://www.w3.org/2000/svg">
<g clip-path="url(#clip0_47_217)" filter="url(#filter0_d_47_217)">
<path d="M32.8288 19.4082C31.3297 19.2937 29.7153 19.2937 27.9279 19.3509C26.0252 19.4654 24.2378 19.5799 22.6234 19.7517C21.009 19.9234 19.6828 20.2097 18.7027 20.6104C17.7225 21.0112 17.2612 21.641 17.3189 22.4998C17.3189 22.7288 17.3765 22.8433 17.4342 22.9005C17.4918 22.9578 17.6648 22.9578 17.8378 22.9578C19.3946 22.557 20.9513 22.099 22.5657 21.6982C24.1801 21.2402 25.7946 20.954 27.409 20.725C27.2937 20.954 27.236 21.2402 27.1783 21.5837C27.063 23.1868 26.5441 24.6753 25.6792 26.0494C24.7567 27.4234 23.6612 28.6257 22.2774 29.599C20.8937 30.6295 19.4522 31.4311 17.8378 32.0036C16.281 32.5761 14.7243 32.9196 13.1675 32.9769C10.6882 33.0914 8.8432 32.6333 7.7477 31.4883C6.65221 30.3433 6.07563 28.912 5.96032 27.1944C5.90266 25.5341 6.13329 23.8166 6.70987 22.0417C7.28644 20.2669 8.15131 18.4921 9.30446 16.7746C10.4 15.057 11.7261 13.5685 13.1675 12.1944C14.609 10.8204 16.1657 9.73259 17.8378 8.87381C19.5099 8.01503 21.1243 7.55701 22.7964 7.49976C23.7189 7.44251 24.5837 7.55701 25.3909 7.90052C26.1982 8.18678 26.7747 8.7593 27.1207 9.56083C27.236 9.96159 27.409 10.1333 27.6396 10.1333C27.7549 10.1333 27.8702 10.0188 28.0432 9.78984C28.1585 9.56083 28.2162 9.33182 28.2162 9.04556C28.1585 8.30129 27.8126 7.67152 27.1783 7.27075C26.5441 6.86999 25.7369 6.58373 24.7567 6.41198C23.7765 6.24022 22.7964 6.18297 21.8162 6.24022C19.9711 6.35472 18.1837 6.75549 16.3964 7.55701C14.609 8.35854 12.9946 9.38908 11.4378 10.7059C9.88104 12.0227 8.55491 13.5112 7.40176 15.1715C6.24861 16.8318 5.32608 18.6066 4.74951 20.4387C4.17293 22.2708 3.88464 24.1601 3.9423 25.9921C4.05761 27.7669 4.51888 29.2555 5.38374 30.4578C6.30626 31.7173 7.45942 32.6333 8.8432 33.2059C10.2846 33.7784 11.8991 34.0646 13.6864 33.9501C15.0702 33.8929 16.454 33.6639 17.8378 33.2631C19.2216 32.8624 20.49 32.3471 21.5855 31.7746C22.5081 31.3166 23.4306 30.6868 24.3531 29.9425C25.2756 29.1982 26.1405 28.3395 26.9477 27.3089C27.7549 26.3356 28.3315 25.3051 28.7928 24.2173C29.254 23.1295 29.4846 21.9845 29.427 20.8395C29.427 20.7822 29.427 20.725 29.427 20.6104C29.427 20.5532 29.3693 20.4387 29.3117 20.3814C29.8882 20.3242 30.5225 20.2669 31.1567 20.2669C31.7909 20.2669 32.3675 20.2097 32.7711 20.0952C33.2324 20.0379 33.463 19.8662 33.4054 19.6944C33.463 19.5799 33.2324 19.4082 32.8288 19.4082Z" fill="#DBDCDB"/>
<path d="M37.0379 31.603C36.173 31.6603 35.3658 31.4885 34.7316 31.0878C33.6361 30.5152 33.0019 29.3702 32.9442 27.6526C32.8865 26.9656 33.0019 26.1068 33.1748 25.1908C33.3478 24.3893 33.6937 23.5305 34.2127 22.6145C34.7316 21.6984 35.3658 20.7824 36.0577 19.9236C36.8073 19.0649 37.5568 18.3206 38.4793 17.7481C39.3442 17.1755 40.2667 16.8893 41.1316 16.832C41.4775 16.832 41.8235 16.832 42.1118 16.9465C42.5154 17.061 42.8037 17.2328 43.0919 17.5763C43.3802 17.8626 43.5532 18.3206 43.5532 18.7786C43.5532 19.2939 43.4379 19.5801 43.2073 19.6946C42.919 19.7519 42.8037 19.6946 42.8037 19.5229C42.8037 19.4656 42.8037 19.4084 42.8037 19.3511C42.8037 19.2939 42.8037 19.2366 42.8037 19.2366C42.8037 19.0076 42.6883 18.7786 42.573 18.5496C42.4001 18.3778 42.1694 18.2633 41.7658 18.2633C41.2469 18.2633 40.6703 18.6068 39.9784 19.1221C39.2865 19.6946 38.537 20.4389 37.8451 21.3549C37.1532 22.271 36.519 23.3015 36.0001 24.332C35.4811 25.4198 35.1352 26.5076 35.0199 27.5381C35.0199 27.7099 34.9622 27.8244 34.9622 27.9962C34.9622 28.1107 34.9622 28.2824 34.9622 28.4542C35.0199 29.1412 35.1928 29.771 35.5388 30.229C35.8847 30.687 36.4037 30.916 37.1532 30.8587C38.0181 30.8015 38.8253 30.458 39.6325 29.7137C40.382 29.0267 41.0739 28.1679 41.7082 27.1946C42.2847 26.2213 42.746 25.4198 43.0343 24.6755C43.2649 24.103 43.3802 23.645 43.4955 23.187C43.5532 22.7862 43.6109 22.4427 43.6109 22.1565C43.6109 21.9275 43.5532 21.6984 43.4955 21.5267C43.4379 21.3549 43.3802 21.1832 43.3226 21.0687C43.2649 20.8969 43.2073 20.7252 43.2073 20.6679C43.2073 20.4389 43.2649 20.2099 43.4955 20.0381C43.6685 19.8664 43.8991 19.8091 44.1298 19.7519C44.3028 19.7519 44.5334 19.8091 44.764 19.9236C44.9946 19.9809 45.3406 19.9809 45.8019 20.0381C46.2631 20.0381 46.7244 20.0381 47.1856 20.0381C47.7046 20.0381 48.2235 19.9809 48.8001 19.9236C49.319 19.8664 49.8379 19.8091 50.2415 19.6946C50.2991 19.6374 50.4145 19.6374 50.5298 19.6374C50.7604 19.6374 50.8757 19.6946 50.8757 19.8091C50.8757 19.9236 50.7604 20.0381 50.5874 20.1526C49.5496 20.7252 48.5694 21.0114 47.7046 21.0687C46.8397 21.1259 46.0901 21.1832 45.5136 21.2404C45.6289 21.9847 45.4559 22.8435 45.11 23.7595C44.764 24.6755 44.3604 25.4771 43.9568 26.1641C43.4379 26.9656 42.919 27.7671 42.2271 28.6259C41.5928 29.4847 40.8433 30.1717 40.0361 30.7442C39.0559 31.2023 38.0757 31.5458 37.0379 31.603Z" fill="#DBDCDB"/>
<path d="M68.1152 32.2898C66.4432 32.3471 65.29 32.1181 64.5981 31.4883C63.9062 30.8585 63.5603 30.057 63.5026 29.0265C63.445 28.0532 63.6179 26.9654 64.0215 25.7631C64.5981 23.9311 65.2324 21.9845 65.9819 19.9807C66.7315 17.9769 67.481 16.0303 68.1729 14.0837C68.7495 12.4234 69.3837 10.7631 69.9603 9.04556C70.5369 7.328 70.9405 5.83945 71.1711 4.57991C69.7873 4.63716 68.4035 4.80892 67.0197 5.09518C65.636 5.38144 64.3098 5.7822 63.099 6.24021C61.8882 6.75548 60.9657 7.328 60.2738 8.07228C59.5819 8.81655 59.236 9.61808 59.2936 10.5914C59.3513 11.2211 59.5243 11.6791 59.9279 12.0799C60.3315 12.4234 60.7351 12.7097 61.1387 12.9387C61.5999 13.1104 61.9459 13.2822 62.1765 13.454C62.4071 13.6257 62.5801 13.7402 62.5801 13.7975C62.5801 13.8547 62.5225 13.912 62.4071 13.912C62.1765 13.912 61.7152 13.7975 61.0234 13.5112C60.3891 13.2249 59.7549 12.7669 59.1783 12.2517C58.6017 11.6791 58.3134 11.0494 58.2558 10.2478C58.2558 10.1906 58.1981 10.0761 58.1405 9.96159C58.0828 9.84709 58.0251 9.73258 58.0251 9.61808C57.9098 8.47304 58.1405 7.44251 58.7747 6.58373C59.4089 5.72495 60.2738 5.03793 61.427 4.46541C62.5801 3.89289 63.7909 3.49212 65.1747 3.14861C66.5585 2.86235 67.9999 2.6906 69.3837 2.57609C69.672 2.57609 69.9603 2.57609 70.2486 2.51884C70.5369 2.51884 70.8252 2.51884 71.1134 2.51884C71.0558 2.28983 70.9981 2.11808 70.8252 1.94632C70.7675 1.83182 70.7098 1.71731 70.7098 1.66006C70.7098 1.43106 70.8252 1.2593 71.1134 1.2593C71.4017 1.2593 71.7477 1.48831 72.036 1.88907C72.1513 2.11808 72.2666 2.28983 72.3243 2.51884C74.1116 2.63335 75.6107 2.9196 76.8216 3.43487C77.0522 3.49212 77.3405 3.72113 77.6864 3.95014C78.0324 4.2364 78.2053 4.46541 78.2053 4.63716C78.2053 4.80892 78.09 4.86617 77.8594 4.86617C77.7441 4.86617 77.5711 4.86617 77.3981 4.86617C77.2252 4.86617 76.9945 4.80892 76.7639 4.69441C75.6107 4.40815 74.227 4.29365 72.5549 4.29365C72.5549 5.61044 72.3819 7.2135 71.9783 9.04556C71.5747 10.8776 71.0558 12.6524 70.4215 14.37C69.5567 16.6601 68.7495 18.9501 67.9999 21.3547C67.2504 23.7593 66.7891 25.9349 66.7315 27.8814C66.7315 27.9959 66.6738 28.1104 66.7315 28.2822C66.7315 28.3967 66.7315 28.5112 66.7315 28.6257C66.7891 29.4845 66.9621 30.057 67.308 30.4005C67.654 30.744 68.1152 30.9158 68.6918 30.9158C69.5567 30.8585 70.5945 30.515 71.7477 29.7707C72.9008 29.0265 74.054 28.2249 75.2071 27.3089C77.2252 25.6486 78.9549 23.8166 80.3963 21.9272C81.8378 20.0379 83.1639 17.9769 84.49 15.6868C85.6432 13.6257 86.7963 11.5646 87.8342 9.50357C88.9297 7.44251 90.1405 5.49594 91.5819 3.60663C91.9279 3.09136 92.4468 2.57609 93.0233 2.00357C93.6576 1.43106 94.3495 0.97304 95.1567 0.572277C95.9639 0.171513 96.7134 -0.0574942 97.463 -0.114746C97.6936 -0.114746 97.9819 -0.114746 98.2702 -0.0574942C98.5585 -0.000242285 98.7891 0.114262 99.0198 0.228765C99.2504 0.343269 99.308 0.457773 99.2504 0.572277C99.1927 0.686781 99.1351 0.744033 99.0198 0.744033C98.9044 0.744033 98.8468 0.744033 98.7315 0.744033C98.6161 0.744033 98.5585 0.744033 98.5008 0.744033C97.8089 0.801284 97.0017 1.2593 96.1369 2.23258C95.2143 3.14861 94.2342 4.40815 93.1387 6.01121C92.0432 7.55701 90.8324 9.33182 89.5062 11.2211C88.2378 13.1677 86.854 15.1143 85.4125 17.1181C83.9134 19.2364 82.3567 21.2975 80.7999 23.244C79.1855 25.2478 77.5711 26.9654 75.899 28.3967C74.6306 29.4845 73.3044 30.4005 72.036 31.0875C70.7098 31.8318 69.4414 32.1753 68.1152 32.2898Z" fill="white"/>
<path d="M92.9081 29.0837C91.5243 29.141 90.2559 28.912 89.218 28.2822C88.1802 27.7097 87.6036 26.7364 87.546 25.3624C87.4883 24.6753 87.6613 23.7593 88.0649 22.7288C88.3532 21.9845 88.8721 21.183 89.6793 20.2097C90.4865 19.2364 91.409 18.2631 92.5045 17.3471C93.6 16.4311 94.6955 15.6295 95.791 14.9998C96.8865 14.37 97.9243 14.0265 98.9045 13.9692C99.2505 13.9692 99.5388 13.9692 99.827 14.0837C100.346 14.2555 100.75 14.5418 100.98 14.8853C101.211 15.286 101.326 15.6868 101.326 16.1448C101.326 16.5456 101.326 16.9463 101.211 17.2898C101.096 17.6906 100.98 17.9769 100.807 18.2631C100.288 19.1219 99.5388 19.9234 98.5009 20.6105C97.4631 21.2975 96.4829 21.87 95.3874 22.2708C94.2919 22.6715 93.4847 22.9578 92.7928 23.0723H92.6775C92.2739 23.0723 92.0433 22.9578 92.0433 22.7288C92.0433 22.557 92.1586 22.4998 92.3892 22.4998C93.1388 22.3853 94.0613 21.9845 95.1568 21.2975C96.2523 20.6105 97.2325 19.9234 98.0973 19.1792C98.4433 18.8357 98.9045 18.3776 99.3658 17.8051C99.827 17.2326 100.058 16.6601 100.058 16.1448C100.058 15.5723 99.7694 15.3433 99.1928 15.3433C98.9045 15.3433 98.6162 15.4578 98.328 15.5723C98.0397 15.6868 97.809 15.8013 97.6361 15.8586C96.7712 16.3166 95.791 17.0608 94.7532 18.0341C93.7153 19.0074 92.7928 20.0952 91.928 21.2402C91.1207 22.3853 90.5442 23.5876 90.2559 24.7326C90.1982 24.9616 90.1406 25.2479 90.0829 25.4769C90.0829 25.7059 90.0829 25.9349 90.0829 26.1639C90.1406 26.9082 90.3712 27.4234 90.8901 27.7097C91.409 27.996 91.9856 28.1105 92.6775 28.1105C93.7153 28.0532 94.7532 27.7669 95.8487 27.3089C96.9442 26.7937 97.9243 26.1639 98.9622 25.4196C99.9424 24.6753 100.865 23.8738 101.672 22.9578C102.479 22.099 103.171 21.2402 103.748 20.4387C103.863 20.3242 103.921 20.2097 104.036 20.2097C104.151 20.2097 104.267 20.2097 104.267 20.2669C104.382 20.2669 104.44 20.3815 104.44 20.496C104.44 20.6105 104.44 20.7822 104.382 20.8967C103.575 22.1563 102.595 23.3586 101.384 24.5608C100.231 25.7631 98.9045 26.7937 97.4631 27.5952C96.0216 28.5112 94.5225 28.9692 92.9081 29.0837Z" fill="white"/>
<path d="M102.422 44.9424C102.018 44.8852 101.73 44.7707 101.442 44.7134C100.807 44.4271 100.404 44.0836 100.115 43.7401C99.8272 43.3394 99.7119 42.9386 99.6542 42.5378C99.5966 41.8508 99.8272 41.0493 100.288 40.1905C100.75 39.3317 101.326 38.4729 102.076 37.5569C102.825 36.5836 103.748 35.6104 104.901 34.5798C106.054 33.5493 107.265 32.576 108.534 31.66C109.802 30.6867 110.897 29.8852 111.878 29.1981C112.858 26.9653 113.723 24.847 114.472 22.8432C115.222 20.8394 115.741 19.2936 116.029 18.2058C115.395 18.95 114.761 19.7516 114.069 20.7249C113.377 21.6409 112.858 22.3279 112.512 22.7287C111.935 23.3584 111.301 24.1027 110.609 24.847C109.917 25.5913 109.168 26.2783 108.361 26.7936C107.553 27.3661 106.746 27.6523 105.997 27.6523C105.478 27.6523 104.959 27.5378 104.382 27.3088C103.806 27.0226 103.344 26.6791 102.998 26.221C102.479 25.6485 102.249 25.0187 102.191 24.3317C102.133 23.4729 102.422 22.6142 102.941 21.6981C103.46 20.7821 104.152 19.8661 105.074 18.95C105.939 18.034 106.919 17.2325 107.899 16.4882C108.879 15.7439 109.86 15.1142 110.782 14.5989C111.705 14.0836 112.454 13.7401 113.031 13.5111C113.607 13.2821 114.242 13.1676 115.049 13.1104C115.395 13.1104 115.856 13.1104 116.433 13.2249C116.952 13.3394 117.47 13.5111 117.874 13.7401C118.335 13.9691 118.508 14.3699 118.566 14.8279C118.566 15.0569 118.451 15.1714 118.22 15.0569C117.989 14.7134 117.643 14.4844 117.24 14.3699C116.836 14.2554 116.375 14.2554 115.971 14.2554C114.761 14.3126 113.434 14.7707 111.935 15.6867C110.436 16.5455 109.168 17.576 108.015 18.721C107.669 19.0646 107.15 19.5798 106.573 20.3813C105.939 21.1829 105.42 22.0416 104.959 22.9577C104.497 23.8737 104.267 24.7325 104.324 25.4768C104.324 25.8775 104.497 26.221 104.728 26.5073C104.843 26.6791 105.016 26.7363 105.305 26.7363C105.881 26.6791 106.631 26.3928 107.438 25.8203C108.245 25.2478 109.168 24.5607 110.09 23.702C111.013 22.8432 111.935 21.9271 112.8 21.0111C113.665 20.0378 114.472 19.1791 115.106 18.3775C115.798 17.576 116.26 16.9462 116.606 16.5455C116.663 16.3737 116.779 16.2592 116.894 16.202C117.067 16.1447 117.24 16.0875 117.413 16.0875C117.932 16.0875 118.451 16.1447 118.97 16.431C119.546 16.66 119.777 16.889 119.661 17.0607C119.143 18.3775 118.508 19.8661 117.816 21.5836C117.124 23.3012 116.375 25.076 115.568 26.9653C115.971 26.7363 116.606 26.221 117.528 25.4195C118.451 24.618 119.431 23.702 120.469 22.6142C121.564 21.5264 122.544 20.3813 123.467 19.2363C123.813 18.8355 124.101 18.6065 124.274 18.6065C124.447 18.6065 124.505 18.7783 124.447 19.0645C124.389 19.4081 124.159 19.8088 123.755 20.3241C123.294 20.9539 122.66 21.6981 121.795 22.5569C120.988 23.4157 120.065 24.2745 119.143 25.1905C118.22 26.1065 117.355 26.9081 116.548 27.5951C115.741 28.2821 115.106 28.7974 114.703 29.0836C113.838 31.1447 112.973 33.1485 112.166 34.9806C111.359 36.8126 110.609 38.3584 109.917 39.5035C109.456 40.305 108.879 41.1065 108.188 41.9653C107.496 42.8241 106.746 43.5111 105.939 44.0836C105.132 44.6562 104.267 44.9997 103.344 44.9997C103.229 44.9997 103.114 44.9997 102.998 44.9997C102.71 44.9997 102.595 44.9997 102.422 44.9424ZM101.903 43.7974C102.076 43.9119 102.364 43.9119 102.71 43.7401C103.056 43.6256 103.517 43.2821 104.036 42.8241C105.189 41.7936 106.17 40.6485 106.977 39.3317C107.784 38.0149 108.533 36.6409 109.168 35.1523C109.802 33.721 110.436 32.347 111.013 30.9729C109.86 31.9462 108.533 33.034 107.034 34.3508C105.593 35.6676 104.267 36.9271 103.056 38.1867C102.479 38.8165 101.961 39.5607 101.615 40.305C101.211 41.1065 101.038 41.7936 101.096 42.4233C101.153 43.1103 101.442 43.5684 101.903 43.7974Z" fill="white"/>
<path d="M135.978 26.7362C135.459 26.7362 134.941 26.6789 134.479 26.4499C134.018 26.2209 133.672 25.7629 133.384 25.1331C133.268 24.8469 133.211 24.5034 133.211 23.9881C133.153 23.3011 133.211 22.5568 133.384 21.698C133.557 20.8393 133.672 20.1522 133.903 19.5225C133.73 19.5797 133.499 19.866 133.095 20.3812C132.692 20.8965 132.231 21.469 131.654 22.156C131.077 22.8431 130.443 23.5301 129.751 24.2744C129.059 24.9614 128.31 25.5339 127.56 26.0492C126.811 26.5072 126.061 26.7934 125.312 26.7934C124.793 26.7934 124.274 26.6789 123.697 26.4499C123.121 26.1637 122.659 25.8202 122.314 25.3622C121.795 24.7896 121.564 24.1599 121.506 23.4728C121.449 22.6141 121.737 21.7553 122.256 20.8393C122.775 19.9232 123.467 19.0072 124.389 18.0912C125.254 17.1751 126.234 16.3736 127.214 15.6293C128.195 14.8851 129.175 14.2553 130.097 13.74C131.02 13.2247 131.769 12.8812 132.346 12.6522C132.98 12.4232 133.672 12.3087 134.422 12.2515C134.883 12.2515 135.286 12.2515 135.805 12.366C136.267 12.4805 136.67 12.595 137.016 12.824C137.247 12.9385 137.477 13.1102 137.65 13.282C137.823 13.511 137.881 13.74 137.939 13.969C137.939 14.198 137.823 14.3125 137.65 14.198C137.362 13.8545 137.016 13.6255 136.613 13.511C136.209 13.3965 135.748 13.3965 135.344 13.3965C134.076 13.4538 132.75 13.9118 131.308 14.8278C129.867 15.6866 128.541 16.7171 127.445 17.8622C127.099 18.2057 126.58 18.7209 126.004 19.5225C125.427 20.324 124.85 21.1828 124.389 22.0988C123.928 23.0148 123.697 23.8736 123.697 24.6179C123.697 25.0186 123.87 25.3622 124.101 25.6484C124.216 25.8774 124.447 25.9347 124.735 25.9347C125.196 25.9347 125.715 25.6484 126.465 25.1331C127.157 24.6179 127.906 24.0454 128.656 23.3583C129.405 22.6713 130.097 21.9843 130.674 21.3545C131.308 20.7247 131.712 20.2095 132 19.9232C132.173 19.7515 132.461 19.408 132.865 18.9499C133.268 18.4347 133.73 17.9194 134.249 17.3469C134.768 16.7744 135.229 16.2591 135.575 15.8583C135.978 15.4576 136.267 15.2286 136.382 15.2286C136.555 15.2286 136.786 15.2286 137.132 15.2858C137.477 15.3431 137.823 15.4576 138.054 15.5721C138.285 15.7438 138.342 15.9156 138.227 16.1446C137.477 17.3469 136.901 18.6064 136.497 19.9232C136.094 21.24 135.863 22.2705 135.805 23.0148C135.805 23.1293 135.748 23.2438 135.748 23.3583C135.748 23.4728 135.748 23.5873 135.748 23.7018C135.805 24.9614 136.267 25.5339 137.132 25.4767C137.593 25.4767 138.227 25.1331 138.977 24.5606C139.726 23.9881 140.476 23.2438 141.283 22.4423C142.032 21.6408 142.782 20.8393 143.416 20.095C144.05 19.3507 144.454 18.7782 144.685 18.3774C144.8 18.2629 144.858 18.2057 144.973 18.2057C145.088 18.2057 145.204 18.2629 145.319 18.3774C145.434 18.4919 145.434 18.6064 145.319 18.7782C145.031 19.3507 144.512 20.0377 143.935 20.8393C143.301 21.6408 142.609 22.4423 141.859 23.2438C141.11 24.0454 140.303 24.7324 139.553 25.3622C139.15 25.7057 138.688 25.9919 138.054 26.2209C137.247 26.5644 136.613 26.6789 135.978 26.7362Z" fill="white"/>
<path d="M142.148 26.5646C141.917 26.5646 141.86 26.4501 141.917 26.2211C141.975 26.0493 142.148 25.5913 142.379 24.9043C142.609 24.2173 142.84 23.4157 143.128 22.4997C143.416 21.5837 143.705 20.5531 143.993 19.5799C144.281 18.5493 144.57 17.6333 144.8 16.7745C145.031 15.9157 145.261 15.2287 145.434 14.7134C145.492 14.5417 145.55 14.2554 145.607 13.9119C145.665 13.5684 145.78 13.2249 145.953 12.9386C146.126 12.6524 146.472 12.4806 146.991 12.4234C147.914 12.3661 148.375 12.5951 148.433 12.9959C148.433 13.1676 148.375 13.3966 148.26 13.7974C147.914 14.6562 147.568 15.6295 147.164 16.7173C146.761 17.805 146.415 18.8356 146.126 19.8089C145.838 20.7821 145.607 21.5264 145.434 22.0989C145.723 21.6409 146.184 21.0112 146.876 20.1524C147.51 19.2936 148.26 18.4348 149.124 17.4615C149.932 16.4883 150.797 15.5722 151.719 14.6562C152.642 13.7402 153.506 12.9959 154.256 12.4234C155.063 11.8508 155.755 11.5646 156.332 11.5073C157.081 11.4501 157.485 11.8508 157.485 12.6524C157.485 12.9386 157.427 13.3394 157.312 13.9119C157.081 14.7134 156.735 15.4577 156.332 16.202C155.928 16.9463 155.582 17.7478 155.294 18.5493C154.775 20.0379 154.487 21.2402 154.429 22.0989C154.429 22.2134 154.371 22.3279 154.371 22.4424C154.371 22.557 154.371 22.6715 154.371 22.786C154.429 24.0455 154.89 24.618 155.697 24.5608C156.159 24.5608 156.793 24.2173 157.542 23.6447C158.292 23.0722 159.042 22.3279 159.849 21.5264C160.656 20.7249 161.348 19.9234 161.982 19.1791C162.616 18.4348 163.02 17.8623 163.251 17.4615C163.366 17.347 163.424 17.2898 163.539 17.2898C163.654 17.2898 163.77 17.347 163.827 17.4043C163.885 17.5188 163.942 17.6333 163.885 17.7478C163.654 18.2631 163.193 18.9501 162.559 19.8089C161.924 20.6104 161.233 21.4692 160.483 22.2707C159.733 23.0722 158.926 23.8165 158.177 24.389C157.715 24.7325 157.139 25.0188 156.505 25.305C155.813 25.5913 155.179 25.7058 154.487 25.7058C153.622 25.6486 152.988 25.3623 152.584 24.9043C152.18 24.389 151.95 23.8165 151.95 23.0722C151.892 22.2134 152.007 21.3547 152.296 20.3814C152.584 19.4081 152.872 18.4921 153.276 17.6333C153.622 16.7745 153.91 16.1447 154.141 15.6867C154.371 15.1715 154.487 14.7707 154.429 14.4844C154.429 14.2554 154.314 14.1409 154.083 14.1409C153.852 14.1409 153.564 14.3127 153.103 14.5989C152.699 14.8852 152.123 15.4005 151.373 16.1447C150.739 16.7745 150.047 17.576 149.297 18.5493C148.548 19.5226 147.856 20.5531 147.164 21.5837C146.472 22.6142 145.896 23.473 145.377 24.2173C144.858 24.9615 144.512 25.4195 144.281 25.5341C144.108 25.6486 143.762 25.8203 143.243 26.0493C142.84 26.4501 142.436 26.5646 142.148 26.5646Z" fill="white"/>
</g>
<defs>
<filter id="filter0_d_47_217" x="0" y="0" width="168" height="53" filterUnits="userSpaceOnUse" color-interpolation-filters="sRGB">
<feFlood flood-opacity="0" result="BackgroundImageFix"/>
<feColorMatrix in="SourceAlpha" type="matrix" values="0 0 0 0 0 0 0 0 0 0 0 0 0 0 0 0 0 0 127 0" result="hardAlpha"/>
<feOffset dy="4"/>
<feGaussianBlur stdDeviation="2"/>
<feComposite in2="hardAlpha" operator="out"/>
<feColorMatrix type="matrix" values="0 0 0 0 0 0 0 0 0 0 0 0 0 0 0 0 0 0 0.25 0"/>
<feBlend mode="normal" in2="BackgroundImageFix" result="effect1_dropShadow_47_217"/>
<feBlend mode="normal" in="SourceGraphic" in2="effect1_dropShadow_47_217" result="shape"/>
</filter>
<clipPath id="clip0_47_217">
<rect width="160" height="45" fill="white" transform="translate(4)"/>
</clipPath>
</defs>
</svg>
